<?xml version="1.0" encoding="UTF-8" ?>
<!DOCTYPE svg PUBLIC "-//W3C//DTD SVG 1.1//EN" "http://www.w3.org/Graphics/SVG/1.1/DTD/svg11.dtd">
<svg width="1080pt" height="973pt" viewBox="0 0 1080 973" version="1.1" xmlns="http://www.w3.org/2000/svg">
<g id="#32506aff">
</g>
<g id="#fcfdfeff">
<path fill="#fcfdfe" opacity="1.00" d=" M 764.53 335.53 C 769.19 332.88 776.97 336.07 776.64 341.98 C 777.13 345.39 774.91 348.37 772.44 350.45 C 769.10 353.16 765.34 355.28 761.83 357.74 C 758.25 360.11 755.13 363.17 751.24 365.06 C 751.40 359.49 755.10 354.90 756.39 349.58 C 758.32 344.61 758.97 337.88 764.53 335.53 Z" />
</g>
<g id="#fdfffdff">
<path fill="#fdfffd" opacity="1.00" d=" M 585.02 342.72 C 591.06 340.97 598.66 340.83 603.51 345.43 C 606.36 347.77 605.77 351.79 605.73 355.06 C 605.83 357.90 603.40 359.97 601.24 361.40 C 596.29 364.15 590.04 364.10 584.81 362.23 C 578.57 360.21 576.47 351.51 580.41 346.52 C 581.59 344.90 583.13 343.47 585.02 342.72 Z" />
</g>
<g id="#fefefeff">
<path fill="#fefefe" opacity="1.00" d=" M 246.50 360.52 C 256.32 352.38 269.33 348.48 282.02 349.47 C 290.16 349.31 297.16 353.84 303.61 358.21 C 307.68 359.94 307.78 353.83 308.57 351.33 C 309.58 351.37 310.59 351.42 311.60 351.47 C 310.24 361.70 310.83 372.01 310.71 382.30 C 309.68 382.46 308.67 382.63 307.65 382.80 C 307.47 377.03 306.50 371.15 303.99 365.92 C 300.52 360.07 294.86 355.14 288.05 353.78 C 283.29 352.96 278.15 353.42 273.95 355.97 C 269.28 358.59 266.34 363.38 264.59 368.30 C 262.02 375.93 260.38 383.93 260.37 392.01 C 259.94 403.79 260.84 415.86 265.31 426.89 C 267.53 432.37 271.80 437.25 277.49 439.21 C 284.09 440.42 291.33 439.94 296.83 435.70 C 305.69 429.77 307.33 418.23 307.71 408.40 C 308.66 408.37 309.62 408.35 310.58 408.34 C 310.81 415.22 310.68 422.11 310.69 429.00 C 310.68 433.22 311.65 437.41 311.33 441.65 C 310.64 441.63 309.24 441.59 308.55 441.57 C 307.76 439.20 308.26 435.87 305.89 434.41 C 302.40 434.62 299.73 437.28 296.75 438.83 C 288.17 444.20 277.49 444.35 267.82 442.54 C 252.47 440.37 238.04 429.76 233.26 414.72 C 230.62 408.13 231.23 400.94 231.20 394.01 C 230.75 381.30 236.79 368.64 246.50 360.52 Z" />
<path fill="#fefefe" opacity="1.00" d=" M 583.18 524.09 C 591.76 519.58 601.71 520.02 611.08 520.67 C 617.32 521.49 622.23 526.26 628.50 526.79 C 628.96 525.01 629.42 523.24 629.78 521.45 C 630.72 521.44 631.66 521.44 632.61 521.45 C 632.62 530.97 632.37 540.49 632.34 550.02 C 632.63 551.47 630.39 554.03 629.43 551.81 C 628.31 549.49 628.57 546.80 627.79 544.38 C 625.82 536.08 620.75 527.93 612.64 524.55 C 606.43 521.98 597.57 523.88 594.79 530.50 C 593.71 535.30 593.69 540.98 597.08 544.93 C 602.16 551.05 609.42 554.66 615.69 559.36 C 622.44 564.40 630.02 569.09 634.16 576.71 C 638.01 584.00 638.44 593.13 634.37 600.43 C 628.24 609.16 617.49 613.82 606.98 613.72 C 599.70 613.64 592.12 614.48 585.18 611.79 C 581.48 610.59 578.07 608.36 574.10 608.20 C 573.26 610.30 572.34 612.40 570.94 614.20 C 568.27 609.22 570.20 603.38 569.81 598.01 C 570.30 590.75 569.50 583.47 570.23 576.23 C 570.86 576.24 572.13 576.25 572.76 576.26 C 573.85 585.53 575.19 595.38 580.95 603.06 C 586.86 611.28 599.86 612.94 607.72 606.65 C 613.77 601.23 612.20 591.30 607.35 585.61 C 599.29 576.41 587.56 571.65 578.93 563.07 C 573.48 558.34 569.77 551.35 570.34 543.99 C 569.48 535.29 575.66 527.64 583.18 524.09 Z" />
<path fill="#fefefe" opacity="1.00" d=" M 652.66 550.73 C 658.94 545.86 667.17 544.10 674.99 544.41 C 683.57 543.97 694.10 544.85 699.18 552.83 C 701.92 557.00 701.66 562.19 701.77 566.97 C 701.78 578.32 701.84 589.68 701.73 601.03 C 701.69 603.27 701.97 605.51 702.29 607.74 C 704.49 607.67 706.69 607.57 708.91 607.62 C 706.81 611.54 702.03 612.38 698.08 613.27 C 693.21 613.58 687.96 613.93 683.55 611.45 C 681.09 609.91 680.06 607.05 678.86 604.57 C 676.04 607.29 673.39 610.47 669.58 611.81 C 663.98 614.04 657.19 614.40 651.86 611.24 C 648.70 609.56 646.53 606.41 645.53 603.04 C 644.83 597.76 644.53 591.63 648.48 587.48 C 655.56 579.64 666.89 578.99 675.61 573.85 C 677.39 572.95 678.56 571.07 678.48 569.06 C 678.63 564.69 678.61 560.31 678.50 555.94 C 678.46 552.66 676.72 549.41 673.94 547.66 C 670.36 547.00 666.46 546.88 663.20 548.75 C 665.79 550.92 668.82 552.88 670.36 556.01 C 670.73 559.60 671.43 563.94 668.80 566.88 C 664.84 571.27 657.65 572.95 652.64 569.30 C 646.72 565.03 647.01 555.14 652.66 550.73 M 667.52 591.92 C 667.31 595.59 667.27 600.49 671.05 602.45 C 673.55 603.19 676.16 602.61 678.52 601.66 C 678.57 592.76 678.57 583.86 678.54 574.96 C 673.73 579.65 667.90 584.70 667.52 591.92 Z" />
</g>
<g id="#fdfefeff">
<path fill="#fdfefe" opacity="1.00" d=" M 333.15 380.26 C 339.49 375.84 347.23 373.19 355.01 373.54 C 361.64 373.44 368.98 375.33 373.12 380.91 C 378.33 386.73 379.04 394.95 378.64 402.42 C 367.87 402.08 357.08 402.32 346.31 402.32 C 346.27 409.85 345.56 418.24 350.44 424.60 C 354.26 430.24 362.33 430.62 368.05 427.96 C 371.83 426.35 373.81 422.09 377.92 421.07 C 376.33 429.66 370.26 437.44 362.51 441.42 C 350.44 446.40 334.85 442.79 327.27 431.83 C 322.19 423.88 322.04 414.13 322.34 405.02 C 322.14 395.76 325.76 386.09 333.15 380.26 M 347.81 383.62 C 346.03 388.76 346.31 394.27 346.22 399.64 C 350.93 399.60 355.64 399.65 360.36 399.57 C 360.32 392.82 360.15 385.85 357.63 379.50 C 357.00 377.57 355.18 376.00 353.05 376.49 C 350.14 377.73 348.65 380.74 347.81 383.62 Z" />
<path fill="#fdfefe" opacity="1.00" d=" M 414.44 382.05 C 418.14 376.68 424.40 373.12 431.02 373.51 C 437.80 372.81 442.51 379.86 442.49 385.99 C 442.55 390.93 440.19 396.72 435.01 398.16 C 430.48 399.18 424.82 399.29 421.45 395.54 C 419.06 393.16 419.24 389.49 419.63 386.42 C 420.49 383.33 422.66 380.85 424.06 378.01 C 419.72 378.93 416.16 382.48 415.30 386.84 C 415.16 386.59 414.88 386.10 414.73 385.85 C 414.62 384.58 414.52 383.31 414.44 382.05 Z" />
<path fill="#fdfefe" opacity="1.00" d=" M 514.22 381.21 C 518.85 375.86 526.18 374.92 532.71 373.57 C 534.10 374.62 535.51 375.66 536.87 376.77 C 533.35 376.25 529.73 376.27 526.29 377.21 C 526.40 377.68 526.61 378.63 526.72 379.11 C 530.62 380.84 533.93 384.47 533.61 388.99 C 534.18 395.32 528.14 400.86 521.98 400.52 C 517.57 400.89 513.49 397.83 511.80 393.89 C 510.95 389.60 510.81 384.48 514.22 381.21 Z" />
<path fill="#fdfefe" opacity="1.00" d=" M 708.50 375.29 C 708.63 374.85 708.90 373.97 709.04 373.53 C 709.46 376.18 709.50 378.86 709.65 381.54 C 712.88 378.68 716.00 375.32 720.33 374.21 C 725.00 372.99 730.69 372.95 734.44 376.46 C 739.96 382.86 738.85 395.59 729.92 398.33 C 724.51 399.52 716.33 398.50 715.02 392.00 C 713.52 386.75 716.80 381.91 720.01 378.09 C 715.16 378.44 712.25 382.62 709.65 386.20 C 709.35 382.55 708.70 378.94 708.50 375.29 Z" />
<path fill="#fdfefe" opacity="1.00" d=" M 538.52 549.29 C 543.42 544.95 550.32 543.12 556.64 545.00 C 563.52 547.44 564.94 556.60 562.62 562.71 C 559.76 570.02 549.60 571.68 543.63 567.30 C 540.95 565.07 540.13 561.25 540.67 557.92 C 541.39 554.41 543.82 551.67 545.89 548.87 C 543.17 549.40 540.76 550.76 538.43 552.18 C 538.45 551.66 538.48 550.61 538.50 550.09 L 538.52 549.29 Z" />
</g>
<g id="#fefffdff">
<path fill="#fefffd" opacity="1.00" d=" M 383.91 375.56 C 393.88 375.47 403.85 375.55 413.74 374.16 C 414.03 376.78 414.26 379.41 414.44 382.05 C 414.52 383.31 414.62 384.58 414.73 385.85 C 413.89 391.19 414.31 396.61 414.22 402.00 C 414.28 411.31 414.09 420.63 414.33 429.94 C 414.37 432.91 415.29 436.58 418.37 437.74 C 420.27 438.72 422.46 438.53 424.52 438.70 C 424.61 439.39 424.80 440.76 424.89 441.45 C 411.24 441.42 397.59 441.39 383.94 441.50 C 384.08 440.82 384.36 439.48 384.50 438.81 C 386.20 438.45 387.88 438.01 389.56 437.54 C 390.20 435.42 390.69 433.25 390.64 431.03 C 390.64 416.68 390.60 402.33 390.64 387.99 C 390.57 385.76 390.75 383.42 389.76 381.37 C 389.15 379.04 386.34 378.92 384.49 378.08 C 384.34 377.45 384.06 376.19 383.91 375.56 Z" />
</g>
<g id="#fefffeff">
<path fill="#fefffe" opacity="1.00" d=" M 445.53 375.61 C 455.55 375.32 465.62 375.67 475.57 374.13 C 475.64 376.55 475.71 378.97 475.86 381.39 C 479.05 378.98 481.70 375.57 485.75 374.57 C 491.13 372.75 498.39 372.83 501.90 378.02 C 505.36 383.87 504.95 392.83 499.01 396.98 C 496.49 399.05 493.05 398.76 490.01 398.68 C 485.16 398.49 480.30 394.18 481.33 389.02 C 480.48 384.42 483.86 381.08 486.79 378.11 C 481.22 378.32 476.24 383.35 476.29 388.95 C 476.12 396.30 476.29 403.65 476.24 411.00 C 476.44 418.66 475.79 426.37 476.67 433.99 C 478.24 438.45 483.50 438.59 487.24 440.08 C 486.71 440.44 485.64 441.17 485.11 441.53 C 472.39 441.34 459.66 441.42 446.94 441.52 C 446.45 441.23 445.48 440.64 444.99 440.35 C 447.40 438.68 451.26 438.20 452.07 434.92 C 452.67 433.01 452.56 430.97 452.64 429.01 C 452.60 416.00 452.64 403.00 452.62 390.00 C 452.56 387.12 452.69 384.12 451.49 381.43 C 450.59 378.49 445.05 378.85 445.53 375.61 Z" />
<path fill="#fefffe" opacity="1.00" d=" M 636.54 375.81 C 643.19 373.55 650.49 372.74 657.39 374.32 C 665.06 375.74 671.04 382.30 673.03 389.67 C 674.00 393.77 674.64 397.98 674.49 402.21 C 663.72 402.44 652.94 401.99 642.20 402.45 L 641.48 402.99 C 641.39 410.42 641.03 418.88 646.04 424.96 C 651.66 431.61 662.82 430.65 668.44 424.49 C 669.94 423.36 671.19 420.97 673.39 421.52 C 671.80 428.71 667.07 434.82 661.43 439.37 C 653.58 444.61 643.12 444.64 634.52 441.28 C 625.42 437.68 619.18 428.67 618.16 419.05 C 617.10 410.08 616.80 400.59 620.12 392.03 C 622.90 384.55 629.28 378.85 636.54 375.81 M 641.38 399.57 C 646.10 399.61 650.82 399.67 655.55 399.56 C 655.69 392.62 655.63 385.42 652.89 378.92 C 652.10 376.59 649.27 376.07 647.17 376.75 C 641.62 382.84 641.40 391.77 641.38 399.57 Z" />
<path fill="#fefffe" opacity="1.00" d=" M 574.32 375.45 C 584.46 375.62 594.59 375.41 604.67 374.27 C 604.81 395.84 604.77 417.41 604.69 438.98 C 604.97 447.65 600.95 456.73 593.39 461.31 C 586.46 465.13 578.35 465.68 570.60 465.68 C 570.53 465.02 570.40 463.70 570.33 463.03 C 572.60 462.56 575.19 462.64 577.02 460.97 C 580.64 458.18 581.97 453.43 581.79 449.02 C 581.88 428.68 581.82 408.34 581.82 388.00 C 581.95 385.13 581.22 382.35 580.26 379.68 C 578.45 379.04 576.63 378.45 574.80 377.93 C 574.63 377.10 574.47 376.27 574.32 375.45 Z" />
<path fill="#fefffe" opacity="1.00" d=" M 505.19 546.32 C 515.32 546.64 525.45 546.08 535.48 544.59 C 535.49 547.13 535.52 549.67 535.63 552.21 C 536.58 551.50 537.54 550.79 538.50 550.09 C 538.48 550.61 538.45 551.66 538.43 552.18 C 537.86 555.21 535.31 557.70 535.51 560.95 C 535.50 573.98 535.49 587.02 535.51 600.05 C 535.44 603.22 536.50 607.04 539.64 608.47 C 541.50 609.44 543.65 609.49 545.71 609.74 C 545.67 610.68 545.65 611.63 545.63 612.58 C 532.37 612.14 519.09 612.18 505.84 612.59 C 505.67 611.68 505.52 610.79 505.37 609.90 C 507.50 609.30 509.89 608.77 511.32 606.92 C 512.09 601.98 511.65 596.97 511.75 592.00 C 511.65 579.65 511.96 567.29 511.59 554.95 C 511.86 551.33 508.38 549.44 505.51 548.35 C 505.43 547.84 505.27 546.83 505.19 546.32 Z" />
<path fill="#fefffe" opacity="1.00" d=" M 718.99 546.31 C 727.11 546.73 735.16 545.09 743.30 545.33 C 743.35 547.63 743.39 549.93 743.48 552.25 C 746.77 549.49 750.16 546.57 754.42 545.45 C 758.15 544.14 762.16 544.41 766.06 544.41 C 771.28 544.33 776.79 547.05 779.22 551.81 C 780.65 554.99 781.51 558.47 781.46 561.98 C 781.71 575.65 781.50 589.33 781.59 603.00 C 781.48 604.98 782.67 606.67 783.74 608.23 C 784.46 609.24 785.21 610.24 785.98 611.25 C 775.74 611.40 765.51 611.32 755.27 611.33 C 755.82 610.19 756.37 609.06 756.91 607.93 C 758.07 605.46 758.57 602.74 758.51 600.03 C 758.47 586.33 758.54 572.64 758.48 558.94 C 758.45 556.00 757.71 551.66 754.04 551.42 C 749.20 550.20 743.37 553.67 743.43 558.95 C 743.25 572.29 743.45 585.64 743.34 598.99 C 743.36 601.62 743.23 604.30 743.81 606.89 C 745.13 608.99 748.95 609.40 748.51 612.41 C 736.86 612.36 725.19 612.14 713.53 612.53 C 713.47 611.62 713.41 610.71 713.37 609.81 C 715.24 609.06 717.87 608.96 718.80 606.88 C 719.92 604.80 719.57 602.32 719.75 600.05 C 719.78 587.02 719.76 573.99 719.76 560.96 C 719.59 557.85 719.97 554.47 718.30 551.69 C 716.87 549.57 714.21 548.94 712.10 547.77 C 713.79 545.67 716.65 546.42 718.99 546.31 Z" />
</g>
<g id="#ffffffff">
<path fill="#ffffff" opacity="1.00" d=" M 532.71 373.57 C 540.65 373.64 549.17 372.76 556.40 376.80 C 559.22 378.75 561.94 381.22 563.21 384.49 C 564.72 389.52 564.45 394.82 564.58 400.01 C 564.61 412.29 564.60 424.58 564.59 436.87 C 566.83 437.59 569.14 437.10 571.42 436.77 C 570.69 439.90 567.43 440.79 564.74 441.59 C 560.94 442.87 556.88 442.52 552.95 442.53 C 549.27 442.59 544.88 441.23 543.51 437.45 C 542.70 436.47 542.76 434.28 541.12 434.44 C 537.88 437.25 534.93 440.76 530.53 441.71 C 524.88 443.09 518.17 443.38 513.29 439.70 C 506.25 434.12 505.28 422.20 511.96 415.95 C 518.49 409.13 528.45 408.40 536.54 404.35 C 538.65 403.16 541.29 401.50 541.40 398.80 C 541.60 394.23 541.54 389.65 541.45 385.08 C 541.43 381.74 539.32 378.84 536.87 376.77 C 535.51 375.66 534.10 374.62 532.71 373.57 M 530.53 419.94 C 530.30 423.69 529.83 428.24 532.91 431.05 C 535.26 433.36 538.63 431.83 541.37 431.26 C 541.63 422.13 541.53 412.99 541.40 403.86 C 537.35 408.85 530.97 412.94 530.53 419.94 Z" />
<path fill="#ffffff" opacity="1.00" d=" M 765.22 374.95 C 767.23 374.48 769.29 374.34 771.36 374.21 C 771.33 391.14 771.37 408.07 771.33 425.00 C 771.39 428.31 771.08 431.70 771.87 434.95 C 772.54 438.27 776.37 438.68 778.87 440.07 C 778.18 441.19 777.20 441.70 775.94 441.59 C 764.33 441.32 752.72 441.34 741.11 441.66 C 741.23 440.73 741.36 439.81 741.50 438.90 C 743.13 438.52 744.84 438.27 746.27 437.32 C 747.86 435.22 747.72 432.50 747.76 430.02 C 747.70 415.67 747.75 401.32 747.74 386.97 C 747.92 383.90 746.48 381.12 745.36 378.37 C 751.90 376.78 758.68 376.55 765.22 374.95 Z" />
<path fill="#ffffff" opacity="1.00" d=" M 679.25 375.47 C 689.00 375.56 698.74 375.48 708.42 374.24 L 708.50 375.29 C 708.70 378.94 709.35 382.55 709.65 386.20 C 709.25 399.47 709.51 412.76 709.45 426.03 C 709.43 430.11 709.82 434.87 713.07 437.76 C 715.72 438.67 718.58 438.88 721.17 440.06 C 720.64 440.42 719.58 441.13 719.06 441.49 C 705.75 441.36 692.44 441.43 679.14 441.50 C 679.48 438.44 682.96 438.28 685.19 437.19 C 687.40 429.99 686.30 422.40 686.55 415.00 C 686.37 404.98 686.95 394.92 686.21 384.92 C 686.02 381.03 682.99 378.59 679.56 377.47 C 679.48 376.97 679.33 375.97 679.25 375.47 Z" />
<path fill="#ffffff" opacity="1.00" d=" M 315.58 522.33 C 320.69 521.23 325.84 522.84 330.99 522.32 C 337.31 521.70 343.67 521.59 350.01 521.84 C 351.65 521.80 353.16 522.61 353.67 524.24 C 360.53 540.29 368.00 556.08 374.86 572.14 C 375.49 573.13 375.77 575.10 377.39 574.54 C 383.98 557.12 390.95 539.84 397.68 522.47 C 405.45 522.12 413.25 522.80 420.99 521.89 C 424.62 521.57 428.26 521.77 431.87 522.25 C 431.76 522.75 431.55 523.76 431.44 524.27 C 428.21 524.71 423.62 525.06 423.04 529.12 C 421.99 536.35 422.61 543.71 422.44 551.00 C 422.48 567.00 422.38 583.01 422.49 599.01 C 422.74 602.12 422.41 605.93 424.90 608.25 C 426.90 609.24 429.13 609.57 431.31 609.95 C 431.48 610.81 431.66 611.67 431.84 612.54 C 416.68 612.24 401.50 612.12 386.34 612.59 C 386.35 612.02 386.36 610.89 386.36 610.32 C 389.31 609.51 392.92 609.69 395.16 607.31 C 396.25 605.04 396.49 602.49 396.47 600.01 C 396.46 582.34 396.47 564.68 396.46 547.01 C 396.43 543.21 396.56 539.39 396.10 535.61 C 394.07 539.01 392.80 542.78 391.40 546.47 C 385.62 561.26 379.71 575.99 373.98 590.80 C 371.70 597.03 368.84 603.06 367.24 609.53 C 367.08 609.14 366.93 608.77 366.78 608.41 C 366.24 609.98 365.64 611.53 365.03 613.08 C 363.09 611.42 361.86 609.18 360.97 606.84 C 350.28 581.04 337.89 555.97 327.66 529.98 C 326.64 548.09 327.72 566.26 327.08 584.39 C 325.17 568.74 327.28 552.90 326.00 537.21 C 325.50 533.67 325.17 529.89 323.26 526.79 C 321.10 524.71 318.20 523.68 315.58 522.33 Z" />
</g>
<g id="#fefefdff">
<path fill="#fefefd" opacity="1.00" d=" M 789.88 381.89 C 795.98 374.71 806.14 373.46 815.00 373.54 C 822.56 373.38 831.37 374.25 836.62 380.38 C 840.11 383.97 840.40 389.29 840.51 394.01 C 840.50 406.69 840.50 419.38 840.50 432.07 C 840.38 434.03 841.07 435.89 841.75 437.70 C 843.47 437.32 845.20 436.90 846.94 436.51 C 846.83 437.25 846.60 438.73 846.49 439.47 C 839.83 442.36 832.39 443.48 825.24 442.04 C 821.42 441.06 819.28 437.50 817.95 434.06 C 815.32 435.68 813.37 438.14 810.85 439.89 C 805.80 443.05 799.41 443.05 793.74 442.03 C 782.89 438.70 779.88 422.69 788.47 415.45 C 794.76 410.40 802.69 408.16 810.10 405.31 C 813.03 404.21 815.92 402.39 817.31 399.48 C 817.80 394.67 817.52 389.81 817.46 384.99 C 817.47 381.59 815.22 378.52 812.46 376.73 C 809.23 376.12 805.92 376.53 802.68 376.72 C 802.64 377.17 802.56 378.06 802.53 378.50 C 804.59 379.99 807.01 381.31 808.21 383.68 C 810.51 387.58 810.08 392.83 807.36 396.42 C 802.42 402.33 790.66 402.12 788.00 394.06 C 786.97 390.09 786.40 384.85 789.88 381.89 M 806.68 418.27 C 806.73 422.48 805.03 428.02 808.96 430.99 C 811.30 433.33 814.64 431.91 817.36 431.23 C 817.62 422.26 817.72 413.25 817.30 404.28 C 813.36 408.54 808.29 412.47 806.68 418.27 Z" />
</g>
<g id="#dfeefaff">
<path fill="#dfeefa" opacity="1.00" d=" M 741.20 375.36 C 749.20 375.30 757.22 375.58 765.22 374.95 C 758.68 376.55 751.90 376.78 745.36 378.37 C 743.77 378.68 742.13 378.34 740.55 378.25 C 740.71 377.53 741.04 376.09 741.20 375.36 Z" />
</g>
<g id="#345069ff">
</g>
<g id="#33506aff">
</g>
<g id="#345067ff">
</g>
<g id="#364f68ff">
</g>
<g id="#e0edf8ff">
<path fill="#e0edf8" opacity="1.00" d=" M 314.96 522.03 L 315.58 522.33 C 318.20 523.68 321.10 524.71 323.26 526.79 C 325.17 529.89 325.50 533.67 326.00 537.21 C 327.28 552.90 325.17 568.74 327.08 584.39 C 327.97 591.04 326.53 598.12 329.50 604.40 C 331.81 608.31 336.81 608.70 340.63 610.36 C 340.46 611.34 340.30 612.33 340.14 613.33 C 332.05 611.90 323.59 611.83 315.48 613.15 C 315.46 611.95 315.43 610.77 315.40 609.59 C 316.90 609.10 318.40 608.60 319.91 608.12 C 318.57 609.26 317.18 610.36 315.80 611.45 C 323.17 610.42 330.63 610.51 338.05 610.91 C 334.38 609.23 329.81 607.89 328.12 603.82 C 326.37 599.29 326.96 594.31 326.33 589.57 C 325.23 592.38 324.57 595.34 324.19 598.33 C 324.54 577.54 324.31 556.75 324.36 535.95 C 324.08 532.86 324.43 529.22 322.28 526.72 C 320.36 525.16 317.82 524.90 315.51 524.36 C 315.37 523.78 315.10 522.62 314.96 522.03 Z" />
</g>
<g id="#fdfefdff">
<path fill="#fdfefd" opacity="1.00" d=" M 445.40 550.44 C 454.02 543.77 465.63 544.07 475.97 544.58 C 481.73 545.47 487.95 547.53 491.49 552.47 C 493.35 555.65 494.03 559.39 494.36 563.03 C 494.72 577.95 493.95 592.90 494.76 607.81 C 496.83 607.68 498.90 607.53 500.99 607.45 C 500.79 609.18 499.82 610.50 498.12 610.98 C 491.78 613.60 484.40 614.50 477.81 612.34 C 474.34 611.24 472.67 607.82 471.20 604.80 C 467.18 609.62 461.45 613.19 455.05 613.43 C 449.49 613.87 442.90 612.27 439.89 607.14 C 435.68 600.59 436.48 590.73 442.79 585.75 C 450.06 579.66 460.05 578.87 467.97 573.97 C 471.46 571.93 471.56 567.58 471.44 564.01 C 471.36 558.39 471.94 551.13 466.51 547.67 C 462.97 546.86 459.25 547.20 455.79 548.19 C 458.73 551.81 463.76 554.74 463.56 560.00 C 463.75 568.43 453.21 574.22 446.12 569.85 C 439.03 566.14 439.21 554.95 445.40 550.44 M 460.33 591.96 C 460.34 595.64 459.61 600.37 463.53 602.41 C 466.10 602.96 470.82 603.54 471.31 599.98 C 471.48 591.77 471.49 583.54 471.23 575.33 C 466.15 579.54 459.82 584.63 460.33 591.96 Z" />
</g>
<g id="#365069ff">
</g>
<g id="#344f69ff">
</g>
<g id="#fbfdfeff">
<path fill="#fbfdfe" opacity="1.00" d=" M 324.19 598.33 C 324.57 595.34 325.23 592.38 326.33 589.57 C 326.96 594.31 326.37 599.29 328.12 603.82 C 329.81 607.89 334.38 609.23 338.05 610.91 C 330.63 610.51 323.17 610.42 315.80 611.45 C 317.18 610.36 318.57 609.26 319.91 608.12 C 323.06 605.88 323.73 601.90 324.19 598.33 Z" />
</g>
<g id="#b2c6d7ff">
<path fill="#b2c6d7" opacity="1.00" d=" M 752.31 609.69 C 753.83 609.10 755.37 608.51 756.91 607.93 C 756.37 609.06 755.82 610.19 755.27 611.33 C 765.51 611.32 775.74 611.40 785.98 611.25 C 785.21 610.24 784.46 609.24 783.74 608.23 C 785.37 608.64 787.00 609.07 788.65 609.49 C 788.71 610.59 788.77 611.69 788.85 612.80 C 776.79 612.57 764.66 611.82 752.67 613.44 C 752.54 612.18 752.42 610.93 752.31 609.69 Z" />
</g>
<g id="#f4fdffff">
<path fill="#f4fdff" opacity="1.00" d=" M 271.52 758.55 C 272.46 758.55 274.36 758.56 275.31 758.56 C 275.31 764.76 275.22 770.96 275.37 777.16 C 278.33 775.15 281.19 772.27 285.01 772.26 C 287.53 772.25 290.33 772.09 292.51 773.61 C 295.19 775.45 296.73 778.72 296.61 781.96 C 296.74 790.07 296.62 798.19 296.66 806.31 C 295.55 806.45 294.45 806.61 293.35 806.78 C 293.13 798.82 293.41 790.85 293.24 782.90 C 293.15 779.37 290.52 775.96 286.93 775.50 C 281.06 774.44 274.77 779.98 275.27 785.97 C 275.25 792.80 275.32 799.63 275.34 806.47 C 274.38 806.48 272.45 806.48 271.49 806.49 C 271.45 790.51 271.40 774.53 271.52 758.55 Z" />
</g>
<g id="#f2ffffff">
<path fill="#f2ffff" opacity="1.00" d=" M 628.33 766.42 C 633.66 764.48 638.93 762.40 644.22 760.38 C 644.61 775.77 644.24 791.17 644.41 806.57 C 643.10 806.55 641.79 806.55 640.49 806.57 C 640.66 793.23 640.19 779.87 640.74 766.55 C 642.03 771.94 641.26 777.52 641.41 783.00 C 641.54 790.58 641.19 798.17 641.52 805.74 C 641.39 792.33 642.15 778.87 641.11 765.49 C 636.65 766.31 632.70 768.71 628.33 769.86 C 628.32 768.70 628.32 767.56 628.33 766.42 Z" />
<path fill="#f2ffff" opacity="1.00" d=" M 627.50 842.12 C 633.02 839.68 638.76 837.77 644.30 835.38 C 644.51 850.77 644.28 866.17 644.42 881.56 C 643.09 881.56 641.77 881.57 640.46 881.61 C 640.41 868.13 640.53 854.64 640.40 841.16 C 636.01 841.66 632.20 844.23 627.80 844.67 C 627.72 844.03 627.57 842.76 627.50 842.12 M 640.76 861.00 C 641.17 867.81 639.71 874.85 641.62 881.50 C 642.42 874.69 641.83 867.83 641.99 861.00 C 641.84 854.51 642.40 847.98 641.59 841.52 C 639.72 847.82 641.19 854.52 640.76 861.00 Z" />
</g>
<g id="#f3fafeff">
<path fill="#f3fafe" opacity="1.00" d=" M 681.51 760.58 C 682.53 760.52 683.57 760.47 684.61 760.42 C 686.09 770.71 684.93 781.20 685.31 791.57 C 687.59 791.60 689.88 791.57 692.16 791.88 C 692.26 792.46 692.47 793.60 692.58 794.17 C 690.19 794.73 687.75 795.01 685.33 795.39 C 685.34 799.22 685.49 803.08 684.83 806.89 C 683.71 806.66 682.63 806.36 681.57 805.99 C 681.35 802.43 681.49 798.87 681.52 795.32 C 674.37 794.05 667.08 795.07 659.88 794.53 C 661.50 789.69 665.02 785.87 667.57 781.54 C 672.32 774.63 676.86 767.57 681.51 760.58 M 665.20 791.35 C 670.54 791.91 675.91 791.58 681.27 791.62 C 681.57 783.61 681.71 775.57 681.22 767.57 C 675.23 775.01 670.47 783.39 665.20 791.35 Z" />
</g>
<g id="#ecf5fcff">
<path fill="#ecf5fc" opacity="1.00" d=" M 752.59 760.58 C 753.88 760.53 755.19 760.49 756.50 760.45 C 756.77 770.82 756.31 781.19 756.76 791.55 C 759.03 791.64 761.32 791.80 763.59 792.15 C 763.60 792.74 763.63 793.91 763.64 794.50 C 761.32 794.65 759.01 794.82 756.71 795.09 C 756.50 798.91 756.50 802.75 756.53 806.58 C 755.17 806.57 753.81 806.57 752.47 806.59 C 752.52 802.65 752.55 798.72 752.30 794.80 C 745.16 794.47 737.99 795.16 730.89 794.32 C 732.60 790.14 735.37 786.55 737.84 782.81 C 742.86 775.46 747.34 767.77 752.59 760.58 M 736.06 791.54 C 741.55 791.73 747.04 791.60 752.53 791.63 C 752.40 783.62 752.67 775.61 752.36 767.60 C 746.06 774.94 741.62 783.64 736.06 791.54 Z" />
</g>
<g id="#f3fdffff">
<path fill="#f3fdff" opacity="1.00" d=" M 840.53 766.99 C 846.01 764.52 851.71 762.59 857.32 760.43 C 857.59 775.81 857.34 791.20 857.44 806.59 C 856.10 806.66 854.77 806.75 853.45 806.79 C 853.50 793.24 853.55 779.68 853.43 766.12 C 849.25 766.98 845.31 768.65 841.38 770.25 C 841.10 769.15 840.80 768.06 840.53 766.99 M 854.14 765.48 C 853.37 772.96 854.02 780.49 853.85 788.00 C 854.03 793.72 853.32 799.48 854.03 805.18 C 854.20 805.33 854.55 805.62 854.72 805.76 C 855.47 798.21 854.60 790.58 854.90 783.00 C 854.60 777.16 855.78 771.18 854.14 765.48 Z" />
</g>
<g id="#f0f9fdff">
<path fill="#f0f9fd" opacity="1.00" d=" M 211.20 761.52 C 211.92 761.23 213.36 760.66 214.09 760.37 C 215.92 762.35 216.18 765.23 216.91 767.73 C 219.32 778.58 222.33 789.28 224.71 800.14 C 228.45 788.61 231.56 776.87 235.03 765.26 C 235.63 763.28 236.76 761.55 237.92 759.87 C 241.30 762.46 241.41 766.97 242.67 770.70 C 245.62 780.18 247.86 789.90 251.14 799.29 C 252.95 795.41 253.52 791.13 254.60 787.03 C 256.56 779.22 258.34 771.36 260.35 763.57 C 260.65 761.94 262.11 760.98 263.14 759.85 C 265.57 762.20 263.68 765.36 263.16 768.09 C 260.12 780.97 256.61 793.73 253.30 806.55 C 252.41 806.54 250.64 806.52 249.76 806.51 C 245.63 793.71 242.19 780.70 238.39 767.81 C 233.50 780.43 230.61 793.73 226.29 806.55 C 225.41 806.55 223.64 806.55 222.75 806.55 C 218.83 791.56 214.99 776.54 211.20 761.52 Z" />
</g>
<g id="#ecf6fdff">
<path fill="#ecf6fd" opacity="1.00" d=" M 406.37 763.46 C 406.92 761.71 408.72 760.98 410.09 760.00 C 411.09 761.72 412.06 763.48 412.82 765.34 C 418.07 778.98 422.83 792.83 428.59 806.27 C 427.19 806.42 425.79 806.56 424.40 806.73 C 422.79 802.59 421.19 798.47 419.63 794.32 C 414.80 793.34 409.85 793.70 404.96 793.64 C 402.88 793.68 400.58 793.44 398.82 794.78 C 396.81 798.49 395.74 802.62 394.23 806.55 C 393.27 806.53 391.34 806.48 390.38 806.46 C 391.20 803.78 392.05 801.11 392.70 798.39 C 392.87 798.78 393.04 799.19 393.22 799.60 C 393.92 796.20 395.17 792.97 396.47 789.77 C 399.95 781.07 402.95 772.18 406.37 763.46 M 409.31 766.04 C 406.19 773.98 402.69 781.89 400.94 790.26 C 406.54 790.47 412.15 790.44 417.75 790.31 C 415.59 782.02 412.34 774.04 409.31 766.04 Z" />
</g>
<g id="#f1f8feff">
<path fill="#f1f8fe" opacity="1.00" d=" M 537.43 763.41 C 538.52 761.64 540.49 760.85 542.28 759.97 C 542.96 761.55 543.72 763.18 543.55 764.97 C 543.49 773.83 543.57 782.68 543.49 791.54 C 546.33 791.60 549.63 791.08 551.14 794.15 C 548.67 794.56 546.19 794.83 543.73 795.18 C 543.47 798.97 543.50 802.78 543.55 806.59 C 542.18 806.55 540.82 806.53 539.47 806.53 C 539.51 802.60 539.56 798.67 539.32 794.76 C 532.17 794.59 525.02 794.84 517.88 794.57 C 519.23 789.86 522.61 786.17 525.11 782.07 C 529.40 775.97 533.15 769.52 537.43 763.41 M 532.27 777.36 C 529.22 782.12 525.74 786.61 523.02 791.58 C 528.51 791.69 533.99 791.67 539.48 791.64 C 539.41 783.33 539.66 775.02 539.33 766.73 C 536.56 769.98 534.61 773.81 532.27 777.36 Z" />
</g>
<g id="#eefafdff">
<path fill="#eefafd" opacity="1.00" d=" M 564.48 764.48 C 567.79 761.73 572.15 761.09 576.21 760.20 C 577.09 761.16 578.47 762.12 577.49 763.55 C 573.92 764.59 569.97 764.57 566.85 766.82 C 561.89 769.72 560.29 775.64 559.27 780.91 C 563.00 779.05 566.63 776.17 571.02 776.50 C 576.87 776.54 582.14 781.29 583.13 786.99 C 584.27 792.61 583.84 799.27 579.47 803.47 C 573.75 809.55 562.20 808.18 558.41 800.61 C 554.50 794.82 555.53 787.57 555.66 780.99 C 556.46 774.69 559.29 768.36 564.48 764.48 M 566.44 780.56 C 562.73 781.60 559.21 784.88 559.29 788.96 C 559.25 793.63 560.40 798.70 564.04 801.91 C 566.58 804.28 570.42 803.68 573.58 803.36 C 576.81 802.29 578.61 798.83 579.47 795.73 C 580.03 791.22 580.24 785.80 576.58 782.46 C 573.99 779.73 569.83 780.01 566.44 780.56 Z" />
</g>
<g id="#f1fcfeff">
<path fill="#f1fcfe" opacity="1.00" d=" M 590.80 770.23 C 592.15 765.90 595.56 762.12 600.00 760.89 C 607.15 758.60 616.94 762.77 617.42 770.98 C 618.30 777.34 613.79 782.45 610.16 787.10 C 605.65 792.67 600.67 797.83 596.03 803.29 C 603.95 803.87 611.91 803.22 619.84 803.71 C 619.81 804.42 619.74 805.86 619.70 806.58 C 610.21 806.44 600.70 806.72 591.21 806.44 C 591.31 803.75 592.83 801.54 594.63 799.68 C 600.45 793.43 606.15 787.03 611.19 780.13 C 614.17 776.29 614.61 770.37 611.54 766.47 C 607.43 762.06 599.15 762.67 596.01 767.93 C 594.68 770.36 593.79 773.05 591.94 775.18 C 590.73 773.80 589.97 771.99 590.80 770.23 Z" />
</g>
<g id="#f2fbfeff">
<path fill="#f2fbfe" opacity="1.00" d=" M 703.85 766.88 C 707.41 762.85 712.78 761.02 717.99 760.46 C 719.29 761.07 720.73 762.05 719.46 763.53 C 715.73 764.61 711.50 764.63 708.45 767.35 C 704.12 770.53 702.20 775.77 701.19 780.86 C 705.43 778.91 709.76 775.40 714.71 776.84 C 719.97 777.66 724.36 782.05 725.40 787.23 C 725.60 791.49 726.29 796.18 724.01 800.04 C 722.26 803.40 719.04 806.52 715.06 806.66 C 711.44 806.77 707.30 807.23 704.36 804.66 C 698.96 800.62 697.43 793.39 697.52 787.00 C 697.79 779.95 698.86 772.28 703.85 766.88 M 712.14 779.63 C 707.73 780.16 703.27 782.80 701.56 787.06 C 700.97 791.88 702.07 797.08 705.13 800.92 C 707.27 803.47 710.75 803.90 713.89 803.59 C 718.13 803.65 720.58 799.31 721.60 795.73 C 724.20 788.99 719.74 780.09 712.14 779.63 Z" />
</g>
<g id="#edf9feff">
<path fill="#edf9fe" opacity="1.00" d=" M 770.35 766.20 C 773.96 759.90 782.86 758.91 788.95 761.91 C 795.11 764.61 797.51 773.25 793.68 778.75 C 792.28 780.67 790.19 781.90 788.31 783.28 C 797.22 785.66 798.84 798.64 791.93 804.01 C 787.91 807.63 782.14 806.79 777.20 806.53 C 771.49 805.43 768.25 799.84 767.22 794.53 C 768.56 794.45 769.92 794.38 771.28 794.32 C 772.07 798.50 774.61 802.99 779.26 803.51 C 782.67 803.58 787.00 804.53 789.49 801.51 C 793.81 797.67 793.69 789.63 788.43 786.68 C 785.01 784.98 781.01 785.34 777.40 784.30 C 777.39 783.38 777.38 782.47 777.39 781.57 C 781.33 781.57 785.84 781.90 788.92 778.94 C 791.79 776.55 791.92 772.47 791.13 769.11 C 789.19 763.85 782.26 762.20 777.55 764.57 C 773.92 766.06 772.80 770.20 770.99 773.31 C 767.17 772.43 768.82 768.46 770.35 766.20 Z" />
</g>
<g id="#f0fbffff">
<path fill="#f0fbff" opacity="1.00" d=" M 807.37 764.41 C 811.80 759.66 819.45 759.16 825.00 762.13 C 828.21 764.31 830.95 767.93 830.61 772.01 C 831.09 778.30 826.32 783.13 822.81 787.77 C 818.63 793.36 813.58 798.19 809.00 803.43 C 815.68 803.65 822.36 803.44 829.04 803.50 C 830.86 803.32 832.51 804.10 834.12 804.89 C 833.04 806.06 831.61 806.75 830.01 806.58 C 821.37 806.53 812.73 806.67 804.10 806.47 C 804.42 802.23 808.30 799.83 810.65 796.69 C 815.26 790.97 820.80 785.97 824.69 779.70 C 826.82 776.53 827.24 772.45 826.13 768.83 C 824.11 764.10 817.90 762.27 813.39 764.43 C 809.19 765.86 807.60 770.37 807.13 774.39 C 805.90 774.38 804.68 774.38 803.47 774.40 C 803.28 770.68 804.52 766.91 807.37 764.41 Z" />
</g>
<g id="#e9f4fbff">
<path fill="#e9f4fb" opacity="1.00" d=" M 343.17 764.34 C 344.31 764.33 345.45 764.34 346.59 764.35 C 346.90 767.07 347.25 769.79 347.46 772.53 C 349.57 772.69 355.03 771.74 353.47 775.38 C 351.42 775.79 349.34 776.02 347.28 776.33 C 347.47 784.73 346.86 793.17 347.56 801.54 C 348.39 805.31 355.06 801.64 354.69 806.11 C 350.68 808.77 343.97 806.62 343.44 801.48 C 341.81 793.24 343.09 784.72 342.66 776.37 C 340.69 775.62 337.56 776.35 336.82 773.88 C 338.39 772.46 340.59 772.65 342.55 772.40 C 342.63 769.70 342.77 767.00 343.17 764.34 Z" />
</g>
<g id="#d6dee7ff">
<path fill="#d6dee7" opacity="1.00" d=" M 854.14 765.48 C 855.78 771.18 854.60 777.16 854.90 783.00 C 854.60 790.58 855.47 798.21 854.72 805.76 C 854.55 805.62 854.20 805.33 854.03 805.18 C 853.32 799.48 854.03 793.72 853.85 788.00 C 854.02 780.49 853.37 772.96 854.14 765.48 Z" />
</g>
<g id="#364f66ff">
</g>
<g id="#354f68ff">
</g>
<g id="#effbfeff">
<path fill="#effbfe" opacity="1.00" d=" M 306.29 782.57 C 305.31 776.04 312.19 771.85 317.99 772.28 C 322.83 771.74 328.46 773.70 330.23 778.62 C 331.10 783.00 331.55 787.53 331.09 792.00 C 330.38 796.85 331.55 801.68 331.81 806.52 C 329.16 807.20 327.38 805.66 327.07 803.05 C 324.48 804.45 322.04 806.51 318.98 806.67 C 315.18 806.79 310.63 807.31 307.88 804.07 C 304.66 801.59 304.85 797.08 305.73 793.54 C 310.18 786.25 319.85 786.80 327.29 786.53 C 327.70 783.06 327.37 778.93 324.21 776.79 C 318.96 773.32 310.39 775.75 309.06 782.37 C 308.13 782.43 307.21 782.49 306.29 782.57 M 315.01 790.63 C 312.16 791.49 308.82 793.61 309.25 797.05 C 308.59 800.44 311.45 803.82 314.93 803.59 C 319.14 804.21 323.58 802.60 326.04 799.06 C 328.09 796.58 327.31 793.23 327.43 790.29 C 323.29 790.23 319.10 789.88 315.01 790.63 Z" />
</g>
<g id="#ecf9fdff">
<path fill="#ecf9fd" opacity="1.00" d=" M 362.58 776.53 C 365.59 772.28 371.26 771.86 376.01 772.34 C 380.74 772.62 384.60 776.47 385.57 781.02 C 384.91 781.45 383.58 782.32 382.92 782.75 C 381.27 780.19 379.94 776.94 376.75 776.00 C 373.03 774.74 367.90 775.09 365.52 778.62 C 365.12 780.74 364.57 783.88 366.88 785.11 C 371.78 788.04 378.01 787.84 382.66 791.31 C 386.73 793.91 386.28 800.12 383.51 803.51 C 380.25 807.13 374.98 806.88 370.53 806.70 C 366.50 806.78 363.40 803.90 360.50 801.50 C 360.47 800.00 360.44 798.50 360.44 797.02 C 364.37 797.23 365.35 801.76 368.55 803.33 C 372.48 803.78 377.25 804.51 380.35 801.41 C 382.17 799.97 381.36 797.37 381.67 795.38 C 376.86 790.39 369.24 791.13 363.87 787.20 C 360.45 784.83 360.62 779.77 362.58 776.53 Z" />
</g>
<g id="#ebf7fcff">
<path fill="#ebf7fc" opacity="1.00" d=" M 438.89 775.51 C 442.96 772.06 448.87 771.16 453.78 773.17 C 457.44 774.62 459.14 778.47 460.32 781.95 C 462.50 789.29 461.58 797.77 456.91 803.97 C 453.85 806.82 449.10 808.13 445.07 806.84 C 442.77 806.23 440.64 805.15 438.47 804.23 C 438.28 809.39 438.34 814.55 438.39 819.72 C 437.09 819.50 435.56 819.96 434.46 819.08 C 434.01 806.06 434.45 793.03 434.25 780.01 C 434.34 777.32 433.79 774.33 435.56 772.05 C 436.68 773.17 437.79 774.34 438.89 775.51 M 443.35 776.22 C 441.09 777.32 438.47 779.17 438.42 781.96 C 438.23 786.31 438.36 790.67 438.31 795.03 C 438.45 796.84 438.03 799.00 439.50 800.42 C 442.17 804.08 447.27 804.15 451.27 803.20 C 454.95 801.30 456.99 797.08 456.78 793.03 C 456.62 788.59 457.59 783.69 455.25 779.69 C 452.96 775.66 447.43 774.32 443.35 776.22 Z" />
</g>
<g id="#f6fdffff">
<path fill="#f6fdff" opacity="1.00" d=" M 473.89 776.08 C 477.04 773.66 480.72 771.62 484.83 772.22 C 490.21 771.95 494.09 776.61 495.64 781.30 C 496.98 785.69 496.93 790.41 496.33 794.94 C 495.51 799.41 493.46 804.32 488.95 806.16 C 483.58 807.64 477.71 806.72 473.38 803.11 C 473.31 808.60 473.35 814.09 473.32 819.59 C 472.37 819.57 470.46 819.51 469.51 819.49 C 469.42 804.27 469.58 789.05 469.43 773.84 C 470.11 773.45 471.48 772.67 472.16 772.28 C 472.74 773.53 473.32 774.80 473.89 776.08 M 480.40 775.56 C 477.59 776.15 475.30 778.27 473.85 780.68 C 472.89 784.37 473.49 788.25 473.33 792.03 C 473.46 795.18 472.66 799.19 475.72 801.26 C 478.83 804.31 483.49 803.94 487.43 803.24 C 490.71 800.97 492.79 797.06 492.69 793.05 C 492.62 788.11 493.65 782.15 489.62 778.39 C 487.41 775.64 483.73 774.91 480.40 775.56 Z" />
</g>
<g id="#335069ff">
</g>
<g id="#f4fcffff">
<path fill="#f4fcff" opacity="1.00" d=" M 271.50 833.56 C 272.46 833.57 274.38 833.60 275.33 833.61 C 275.30 839.80 275.21 846.01 275.40 852.21 C 277.84 850.41 280.16 848.15 283.20 847.46 C 287.08 846.94 291.88 846.96 294.40 850.52 C 297.25 853.67 296.55 858.11 296.68 862.01 C 296.58 868.36 296.79 874.71 296.59 881.06 C 295.54 881.43 294.48 881.77 293.41 882.07 C 293.03 874.02 293.52 865.96 293.23 857.92 C 292.80 855.24 291.98 851.73 288.90 851.05 C 283.72 849.01 277.59 852.52 275.60 857.40 C 274.91 865.47 275.51 873.59 275.22 881.69 C 274.33 881.69 272.53 881.69 271.64 881.69 C 271.24 865.66 271.51 849.60 271.50 833.56 Z" />
</g>
<g id="#f1fbfdff">
<path fill="#f1fbfd" opacity="1.00" d=" M 775.65 836.77 C 780.57 834.28 787.08 835.05 791.04 839.02 C 795.54 843.39 796.09 850.09 796.23 856.01 C 795.64 862.97 795.67 871.00 790.16 876.16 C 786.29 880.72 780.06 881.99 774.34 881.71 C 774.31 881.01 774.26 879.60 774.23 878.90 C 779.84 878.86 786.09 877.28 789.22 872.19 C 791.46 869.30 791.70 865.60 791.79 862.10 C 788.53 864.22 785.16 867.00 781.00 866.61 C 775.78 867.10 771.05 863.38 769.27 858.64 C 765.66 851.14 768.34 840.99 775.65 836.77 M 778.39 839.52 C 769.60 843.23 769.03 858.37 777.85 862.46 C 783.72 865.52 790.44 860.52 792.40 854.94 C 792.54 850.26 791.62 845.15 788.47 841.53 C 786.05 838.55 781.76 839.21 778.39 839.52 Z" />
</g>
<g id="#f0fbfdff">
<path fill="#f0fbfd" opacity="1.00" d=" M 211.39 836.84 C 212.67 833.81 215.31 836.45 215.64 838.55 C 218.86 850.69 221.63 862.96 224.79 875.12 C 228.90 862.30 231.90 849.11 236.51 836.47 C 237.82 834.44 239.93 836.35 240.33 838.04 C 244.25 850.26 247.18 862.80 251.29 874.96 C 254.72 862.98 257.12 850.74 260.39 838.72 C 260.65 837.06 262.07 836.08 263.14 834.95 C 264.43 836.24 264.85 837.97 264.11 839.68 C 260.34 853.61 257.07 867.68 253.25 881.60 C 252.37 881.58 250.61 881.52 249.74 881.50 C 245.50 868.70 242.34 855.58 238.15 842.77 C 233.77 855.57 230.72 868.79 226.29 881.57 C 225.41 881.56 223.65 881.54 222.77 881.53 C 219.72 870.57 217.10 859.49 214.23 848.48 C 213.18 844.63 211.86 840.82 211.39 836.84 Z" />
</g>
<g id="#eff9fdff">
<path fill="#eff9fd" opacity="1.00" d=" M 405.86 840.03 C 406.67 838.25 407.53 835.33 409.98 835.60 C 411.65 837.01 412.27 839.19 413.07 841.14 C 415.98 849.18 419.10 857.14 422.07 865.16 C 424.10 870.68 426.64 876.04 427.94 881.81 C 426.67 881.48 425.05 882.00 424.04 881.06 C 422.43 877.36 421.24 873.50 420.13 869.64 C 413.23 867.80 406.13 869.98 399.10 869.28 C 397.15 873.23 395.69 877.39 394.24 881.55 C 393.26 881.52 391.30 881.47 390.32 881.44 C 395.35 867.58 400.71 853.84 405.86 840.03 M 401.02 865.47 C 406.65 865.49 412.29 865.50 417.93 865.47 C 415.66 857.15 412.03 849.27 409.48 841.03 C 406.13 848.95 402.62 856.99 401.02 865.47 Z" />
</g>
<g id="#eefafeff">
<path fill="#eefafe" opacity="1.00" d=" M 536.66 839.79 C 537.79 838.09 539.24 836.65 540.75 835.30 C 541.45 835.70 542.85 836.50 543.55 836.90 C 543.52 846.73 543.52 856.56 543.52 866.40 C 546.11 866.69 548.68 867.16 551.21 867.87 C 549.20 870.03 546.20 870.21 543.49 870.73 C 543.53 874.35 543.52 877.97 543.55 881.60 C 542.19 881.57 540.83 881.56 539.48 881.57 C 539.49 877.79 539.52 874.01 539.31 870.24 C 532.16 870.18 524.94 870.77 517.85 869.53 C 518.93 866.32 520.80 863.49 522.74 860.75 C 527.54 853.87 531.86 846.67 536.66 839.79 M 523.02 866.61 C 528.53 866.78 534.04 866.70 539.56 866.66 C 539.33 858.37 539.69 850.07 539.32 841.79 C 533.67 849.92 528.20 858.18 523.02 866.61 Z" />
</g>
<g id="#f0fafeff">
<path fill="#f0fafe" opacity="1.00" d=" M 562.93 840.91 C 566.30 837.44 571.17 836.00 575.89 835.70 C 577.27 836.23 578.77 837.01 577.44 838.59 C 573.98 839.81 570.02 839.63 566.97 841.92 C 562.19 844.97 560.28 850.62 559.25 855.92 C 562.43 854.32 565.51 852.28 569.06 851.62 C 574.23 851.26 579.93 853.96 581.99 858.93 C 584.50 864.82 584.41 872.24 580.45 877.49 C 575.78 883.54 565.85 883.69 560.48 878.52 C 556.64 874.39 555.19 868.55 555.47 863.02 C 555.39 855.20 556.57 846.26 562.93 840.91 M 567.41 855.44 C 563.87 856.26 560.72 859.05 559.45 862.44 C 558.90 867.57 560.05 873.34 564.02 876.94 C 566.04 879.07 569.25 878.67 571.91 878.65 C 575.89 878.75 578.16 874.69 579.33 871.42 C 580.01 866.93 580.39 861.56 576.99 858.01 C 574.66 855.27 570.75 854.88 567.41 855.44 Z" />
</g>
<g id="#f3fcffff">
<path fill="#f3fcff" opacity="1.00" d=" M 595.75 837.90 C 600.81 834.50 607.91 834.71 612.95 838.02 C 618.29 841.93 618.78 849.95 615.22 855.22 C 609.82 863.71 602.47 870.72 595.96 878.33 C 603.90 878.98 611.87 878.33 619.82 878.73 C 619.80 879.47 619.76 880.93 619.74 881.66 C 610.24 881.49 600.72 881.78 591.22 881.48 C 591.24 878.48 593.15 876.14 595.12 874.09 C 600.80 868.08 606.47 862.00 611.24 855.23 C 613.95 851.47 614.66 845.94 611.92 842.02 C 607.99 837.00 599.35 837.69 595.99 842.98 C 594.65 845.42 593.82 848.15 591.96 850.31 C 590.62 848.91 589.91 847.06 590.81 845.25 C 591.77 842.43 593.23 839.59 595.75 837.90 Z" />
</g>
<g id="#f1fbfeff">
<path fill="#f1fbfe" opacity="1.00" d=" M 661.33 848.18 C 661.87 841.73 667.25 835.59 673.96 835.45 C 680.17 834.75 687.66 838.59 688.38 845.32 C 689.35 850.30 686.88 855.03 683.88 858.82 C 678.58 865.59 672.79 871.97 666.97 878.29 C 674.87 879.04 682.82 878.28 690.74 878.77 C 690.73 879.50 690.71 880.96 690.71 881.69 C 681.14 881.47 671.57 881.75 662.01 881.53 C 662.41 877.54 665.73 874.99 668.14 872.13 C 673.19 866.44 678.67 860.98 682.63 854.44 C 685.16 850.48 685.80 844.38 682.03 840.98 C 678.14 837.94 672.06 837.88 668.44 841.38 C 666.10 843.41 665.83 846.68 664.71 849.39 C 663.28 849.85 662.15 849.44 661.33 848.18 Z" />
<path fill="#f1fbfe" opacity="1.00" d=" M 434.48 848.21 C 436.44 846.39 437.55 849.65 438.94 850.66 C 442.81 847.49 448.14 846.24 452.93 847.85 C 457.04 849.49 459.29 853.67 460.49 857.71 C 462.21 863.86 461.81 870.80 458.43 876.34 C 456.59 879.82 452.88 882.10 448.99 882.41 C 445.22 882.47 441.81 880.66 438.45 879.23 C 438.26 884.33 438.33 889.44 438.38 894.55 C 437.04 894.61 435.69 894.69 434.36 894.79 C 434.34 879.26 434.05 863.72 434.48 848.21 M 442.54 851.63 C 440.23 852.85 438.08 855.13 438.35 857.94 C 438.36 863.29 438.14 868.66 438.52 874.00 C 439.87 876.78 442.82 878.95 446.03 878.70 C 448.41 878.58 451.35 879.15 453.10 877.09 C 456.74 873.85 457.53 868.63 457.47 864.00 C 457.33 860.36 456.80 856.43 454.45 853.51 C 451.53 850.29 446.32 849.54 442.54 851.63 Z" />
</g>
<g id="#eef9fdff">
<path fill="#eef9fd" opacity="1.00" d=" M 737.83 843.78 C 740.80 839.26 745.99 836.77 751.20 835.88 C 752.93 835.18 754.55 836.21 756.14 836.84 C 754.21 839.98 750.40 839.27 747.41 840.48 C 741.09 842.69 737.48 849.56 737.19 855.96 C 740.88 854.03 744.55 851.06 748.98 851.62 C 753.22 852.21 757.68 854.37 759.43 858.52 C 763.16 865.50 761.85 875.46 755.07 880.10 C 749.43 884.02 741.07 882.41 736.97 877.00 C 733.20 872.59 733.18 866.48 733.28 861.00 C 733.23 855.01 734.50 848.83 737.83 843.78 M 744.45 855.58 C 740.79 856.64 736.81 859.77 737.27 863.99 C 737.00 868.28 737.52 873.04 740.94 876.07 C 743.46 879.24 747.85 878.91 751.45 878.38 C 758.68 874.06 759.98 862.10 753.10 856.91 C 750.68 854.94 747.33 855.07 744.45 855.58 Z" />
</g>
<g id="#effafeff">
<path fill="#effafe" opacity="1.00" d=" M 801.81 838.15 C 803.03 837.02 804.10 835.33 806.02 835.67 C 812.68 835.55 819.35 835.70 826.01 835.60 C 828.36 835.48 830.70 835.87 832.94 836.61 C 826.92 851.79 819.74 866.49 813.33 881.50 C 811.92 881.53 810.53 881.56 809.14 881.60 C 815.19 867.48 822.38 853.84 828.02 839.55 C 821.00 839.38 813.99 839.53 806.98 839.49 C 805.13 839.62 803.46 838.78 801.81 838.15 Z" />
</g>
<g id="#effafdff">
<path fill="#effafd" opacity="1.00" d=" M 856.52 836.18 C 858.64 835.24 863.03 835.29 861.62 838.76 C 858.08 839.74 854.13 839.73 851.09 842.07 C 846.49 845.12 844.04 850.53 843.99 855.97 C 847.57 853.74 851.45 850.94 855.92 851.70 C 859.82 852.41 864.06 854.11 865.94 857.87 C 868.05 861.20 867.68 865.30 867.70 869.06 C 867.99 877.29 859.10 884.25 851.18 881.90 C 846.71 881.03 843.25 877.47 841.54 873.38 C 838.38 865.84 839.26 857.28 841.54 849.63 C 843.70 842.89 849.32 837.17 856.52 836.18 M 851.42 855.49 C 848.04 856.34 845.27 859.00 843.75 862.06 C 843.01 867.43 844.20 873.80 848.80 877.21 C 851.20 879.23 854.65 878.78 857.55 878.42 C 860.90 877.09 863.74 873.73 863.65 870.00 C 863.60 865.91 864.63 860.90 861.08 857.92 C 858.73 855.10 854.75 854.95 851.42 855.49 Z" />
</g>
<g id="#f1fafdff">
<path fill="#f1fafd" opacity="1.00" d=" M 704.96 853.87 C 708.65 847.83 712.69 842.01 716.79 836.25 C 717.76 836.27 719.70 836.30 720.67 836.32 C 720.77 846.39 720.85 856.46 720.62 866.53 C 722.99 866.66 725.37 866.79 727.75 867.09 C 727.76 867.71 727.78 868.95 727.79 869.56 C 725.48 869.81 723.19 870.15 720.90 870.42 C 720.73 874.04 720.70 877.66 720.81 881.30 C 720.01 881.46 718.41 881.78 717.61 881.94 C 716.69 878.12 716.56 874.20 716.68 870.30 C 709.50 870.07 702.19 870.97 695.13 869.25 C 697.92 863.82 701.83 859.09 704.96 853.87 M 708.54 854.47 C 705.93 858.47 703.09 862.33 700.89 866.58 C 706.12 866.80 711.36 866.70 716.61 866.69 C 718.10 858.74 716.76 850.71 716.47 842.73 C 713.46 846.38 711.21 850.58 708.54 854.47 Z" />
</g>
<g id="#335068ff">
</g>
<g id="#e8f3fcff">
<path fill="#e8f3fc" opacity="1.00" d=" M 342.74 839.46 C 344.13 839.68 347.05 838.68 347.02 841.02 C 347.35 843.16 347.30 845.34 347.35 847.51 C 349.53 847.78 352.27 847.21 353.94 848.99 C 353.59 851.93 349.40 850.69 347.28 851.48 C 347.51 860.07 346.75 868.73 347.68 877.28 C 349.76 879.48 354.11 877.70 355.10 881.22 C 351.84 882.85 347.50 882.83 344.91 880.00 C 343.05 877.07 342.69 873.43 342.66 870.04 C 342.68 863.88 342.71 857.72 342.67 851.56 C 340.55 851.10 338.45 850.61 336.38 850.02 C 337.79 847.91 340.33 847.64 342.63 847.35 C 342.66 844.71 342.68 842.08 342.74 839.46 Z" />
</g>
<g id="#355168ff">
</g>
<g id="#364f67ff">
</g>
<g id="#d5dee3ff">
<path fill="#d5dee3" opacity="1.00" d=" M 640.76 861.00 C 641.19 854.52 639.72 847.82 641.59 841.52 C 642.40 847.98 641.84 854.51 641.99 861.00 C 641.83 867.83 642.42 874.69 641.62 881.50 C 639.71 874.85 641.17 867.81 640.76 861.00 Z" />
</g>
<g id="#355068ff">
</g>
<g id="#edf8feff">
<path fill="#edf8fe" opacity="1.00" d=" M 305.44 857.33 C 307.10 847.12 322.23 843.61 328.65 851.36 C 330.80 853.65 331.27 856.93 331.30 859.95 C 331.34 867.20 331.04 874.46 331.73 881.69 C 330.55 881.66 329.37 881.66 328.19 881.67 C 327.86 880.42 327.54 879.19 327.24 877.96 C 323.32 880.53 318.81 883.11 313.93 882.07 C 309.51 881.58 304.78 877.82 305.23 873.02 C 304.72 869.29 307.14 865.99 310.22 864.19 C 315.35 860.84 322.15 863.27 327.46 860.85 C 327.77 857.99 327.17 854.96 325.17 852.82 C 322.39 849.96 317.77 849.88 314.26 851.22 C 311.45 852.12 310.32 855.07 309.09 857.47 C 307.87 857.42 306.65 857.36 305.44 857.33 M 309.27 872.04 C 308.60 875.44 311.53 878.97 315.04 878.65 C 319.35 879.30 323.83 877.54 326.27 873.87 C 327.17 871.10 326.68 868.12 326.75 865.28 C 322.83 865.29 318.84 864.89 314.97 865.68 C 312.15 866.53 308.79 868.63 309.27 872.04 Z" />
</g>
<g id="#ebf7fdff">
<path fill="#ebf7fd" opacity="1.00" d=" M 364.59 849.68 C 370.17 845.87 378.94 846.12 383.49 851.48 C 384.85 853.12 385.02 855.36 385.60 857.36 C 384.56 857.43 383.53 857.51 382.49 857.61 C 381.41 855.73 380.54 853.66 378.98 852.12 C 375.10 849.65 369.52 849.91 365.98 852.90 C 364.95 854.78 365.08 857.26 365.78 859.25 C 370.74 863.21 377.61 862.93 382.87 866.30 C 385.94 868.45 386.13 872.87 385.02 876.14 C 383.10 880.79 377.49 882.00 372.99 882.31 C 367.37 882.27 359.60 879.13 360.28 872.36 C 361.29 872.38 362.30 872.42 363.33 872.47 C 364.75 874.66 366.22 876.99 368.51 878.39 C 372.84 878.89 378.51 879.58 381.37 875.45 C 381.71 873.24 382.15 870.36 379.97 868.94 C 374.83 865.10 367.29 866.16 362.73 861.32 C 360.13 857.89 360.75 852.00 364.59 849.68 Z" />
</g>
<g id="#f5fdffff">
<path fill="#f5fdff" opacity="1.00" d=" M 473.82 851.82 C 475.95 849.95 478.08 847.55 481.09 847.36 C 484.08 847.16 487.42 846.93 490.00 848.78 C 494.94 852.10 496.90 858.28 496.73 864.00 C 496.98 870.33 495.44 878.02 489.20 881.08 C 483.88 883.91 477.81 881.41 473.36 878.12 C 473.29 883.61 473.33 889.10 473.38 894.59 C 472.40 894.58 470.46 894.56 469.48 894.54 C 469.61 879.40 469.25 864.22 469.66 849.09 C 470.28 848.58 471.54 847.55 472.17 847.03 C 472.75 848.60 473.30 850.20 473.82 851.82 M 479.32 851.07 C 476.24 852.45 472.99 855.26 473.35 858.97 C 473.40 863.83 473.05 868.72 473.60 873.55 C 475.26 876.49 478.48 879.01 482.03 878.76 C 484.41 878.65 487.34 879.06 489.00 876.94 C 493.80 872.71 492.70 865.77 492.58 860.07 C 492.61 853.65 485.24 848.71 479.32 851.07 Z" />
</g>
<g id="#345066ff">
</g>
</svg>
