<?xml version="1.0" encoding="UTF-8" ?>
<!DOCTYPE svg PUBLIC "-//W3C//DTD SVG 1.1//EN" "http://www.w3.org/Graphics/SVG/1.1/DTD/svg11.dtd">
<svg width="1000pt" height="800pt" viewBox="0 0 1000 800" version="1.1" xmlns="http://www.w3.org/2000/svg">
<g id="#500405ff">
<path fill="#500405" opacity="1.00" d=" M 0.00 0.00 L 72.41 0.00 C 57.09 0.64 41.76 1.23 26.42 1.57 C 17.61 1.45 8.80 1.92 0.00 2.21 L 0.00 0.00 Z" />
<path fill="#500405" opacity="1.00" d=" M 186.76 0.00 L 204.10 0.00 C 199.43 5.64 196.06 12.21 191.71 18.04 C 190.72 11.87 189.20 5.77 186.76 0.00 Z" />
<path fill="#500405" opacity="1.00" d=" M 80.42 389.00 C 82.23 395.81 82.28 402.99 81.50 409.96 C 81.24 402.97 79.56 395.99 80.42 389.00 Z" />
<path fill="#500405" opacity="1.00" d=" M 498.59 785.88 C 499.89 786.13 501.20 786.29 502.53 786.32 C 505.30 791.03 508.27 795.64 511.58 800.00 L 466.43 800.00 C 468.02 795.47 469.61 790.93 470.79 786.27 C 474.21 787.01 477.64 786.36 481.03 785.86 C 486.84 786.35 492.81 786.62 498.59 785.88 Z" />
</g>
<g id="#fabc31ff">
<path fill="#fabc31" opacity="1.00" d=" M 72.41 0.00 L 166.38 0.00 C 171.71 15.33 173.77 31.83 171.94 47.97 C 169.81 68.46 162.49 88.30 151.32 105.57 C 144.83 115.44 135.68 123.15 129.17 132.99 C 133.39 119.07 141.57 106.74 145.73 92.81 C 149.92 79.30 146.83 63.97 138.01 52.96 C 128.49 40.85 113.95 33.62 99.12 30.39 C 83.94 27.29 67.83 29.14 53.61 35.22 C 29.47 45.34 8.87 66.01 2.67 91.90 C 0.87 98.30 1.28 105.03 0.00 111.50 L 0.00 57.20 C 1.59 52.97 2.20 48.47 3.54 44.17 C 6.76 32.56 11.73 21.39 18.62 11.49 C 20.99 8.00 24.00 5.02 26.42 1.57 C 41.76 1.23 57.09 0.64 72.41 0.00 Z" />
<path fill="#fabc31" opacity="1.00" d=" M 216.94 0.00 L 416.22 0.00 C 421.51 9.38 425.41 20.39 422.70 31.19 C 420.71 37.93 415.67 43.05 410.96 48.02 C 408.80 50.11 406.99 52.63 404.31 54.12 C 404.36 48.02 404.77 41.80 403.01 35.87 C 401.58 29.25 397.56 23.15 391.75 19.60 C 382.18 13.89 370.05 14.52 359.81 18.01 C 345.13 22.68 333.49 34.86 328.36 49.25 C 324.85 58.43 325.01 68.37 325.57 78.02 C 327.10 88.22 331.38 98.06 338.19 105.87 C 347.51 116.66 359.26 125.38 367.15 137.37 C 362.72 136.18 358.72 133.41 354.01 133.32 C 348.66 133.20 343.14 132.84 337.99 134.58 C 323.02 139.28 311.00 153.18 309.78 169.01 C 309.22 180.41 314.21 191.74 322.45 199.54 C 332.55 208.77 343.18 220.24 342.67 234.90 C 342.93 245.04 337.29 253.97 332.15 262.25 C 332.70 254.74 335.47 247.57 335.80 240.02 C 336.01 235.32 336.14 230.50 334.73 225.96 C 332.83 219.07 328.72 213.09 324.64 207.33 C 319.93 200.86 314.68 194.31 307.31 190.76 C 298.96 186.62 288.51 185.79 280.05 190.08 C 274.33 192.94 270.43 198.38 267.83 204.07 C 264.40 194.33 260.04 184.52 260.43 173.96 C 260.05 162.12 265.16 151.02 270.94 140.98 C 275.91 132.21 281.72 123.34 282.41 112.98 C 282.67 101.57 275.78 90.51 265.60 85.43 C 253.69 79.19 238.03 78.92 226.86 86.94 C 215.28 94.88 208.01 107.98 205.55 121.64 C 205.15 124.13 205.98 127.00 204.34 129.15 C 202.31 125.74 200.15 122.40 198.10 119.00 C 191.52 106.08 185.57 91.83 187.30 77.04 C 188.05 62.00 193.93 47.92 198.74 33.84 C 203.62 21.99 209.03 10.17 216.94 0.00 Z" />
<path fill="#fabc31" opacity="1.00" d=" M 425.54 0.00 L 454.49 0.00 C 450.94 10.54 447.23 21.07 445.02 31.99 C 439.66 57.25 439.96 83.42 443.52 108.91 C 447.58 133.24 462.29 154.42 465.66 178.91 C 468.05 163.73 466.71 148.22 464.25 133.13 C 461.36 113.11 460.40 91.95 467.91 72.77 C 475.46 53.82 489.38 37.48 506.67 26.72 C 516.47 21.10 526.85 16.20 538.01 14.07 C 553.05 10.77 569.43 11.67 583.30 18.77 C 584.40 19.49 584.74 20.59 584.31 22.08 C 582.89 30.52 583.31 39.12 583.66 47.64 C 574.76 41.78 563.43 39.89 553.12 42.62 C 537.97 46.41 525.54 56.88 515.58 68.51 C 502.22 84.66 495.02 105.20 492.73 125.86 C 490.21 148.62 492.84 171.66 498.12 193.84 C 500.54 206.33 503.88 218.61 506.37 231.08 C 506.85 233.78 507.85 236.57 506.97 239.29 C 507.18 239.37 507.61 239.52 507.82 239.59 C 512.00 261.41 513.22 284.18 507.97 305.92 C 500.25 337.22 485.99 367.32 464.32 391.40 C 456.66 399.96 447.90 407.42 439.00 414.65 C 445.93 407.35 453.12 400.23 458.76 391.83 C 481.47 359.49 492.68 318.07 484.86 278.92 C 480.54 257.49 469.85 238.08 458.22 219.83 C 445.71 200.35 431.97 181.43 423.03 159.94 C 417.49 146.89 413.13 133.27 410.89 119.25 C 407.64 100.56 407.87 81.44 410.22 62.65 C 414.34 58.62 418.53 54.67 422.56 50.54 C 428.69 44.34 432.66 35.78 432.54 26.98 C 432.62 22.43 432.60 17.82 431.31 13.42 C 430.29 8.92 427.45 5.18 425.68 0.98 L 425.54 0.00 Z" />
<path fill="#fabc31" opacity="1.00" d=" M 613.43 0.00 L 672.95 0.00 C 666.54 2.08 660.00 3.87 653.99 6.96 C 635.88 15.79 620.48 30.72 612.32 49.26 C 608.00 58.98 605.99 69.69 606.51 80.32 C 603.35 71.58 602.99 62.15 603.01 52.96 C 603.37 37.86 606.14 22.86 610.70 8.47 C 611.53 5.62 612.98 2.96 613.43 0.00 Z" />
<path fill="#fabc31" opacity="1.00" d=" M 707.40 0.00 L 770.85 0.00 C 769.21 1.70 767.68 3.50 766.16 5.30 C 754.42 19.83 745.29 36.77 741.09 55.06 C 734.81 82.20 741.07 110.13 748.63 136.32 C 749.51 133.62 749.75 130.78 750.18 127.99 C 753.11 109.62 758.76 91.15 770.24 76.24 C 778.60 65.41 789.42 55.39 803.11 52.22 C 824.17 46.83 847.05 55.82 861.30 71.66 C 867.99 78.94 872.30 87.95 876.41 96.84 C 880.14 105.25 882.35 114.72 880.44 123.89 C 876.25 146.28 862.74 165.36 855.97 186.89 C 866.57 176.54 880.97 169.45 895.98 169.57 C 905.45 169.49 915.07 172.97 921.86 179.66 C 914.23 152.62 893.76 132.18 881.72 107.31 C 872.53 87.41 867.23 65.46 868.09 43.46 C 868.69 30.82 873.03 18.09 881.65 8.65 C 884.60 5.41 888.11 2.75 891.51 0.00 L 968.68 0.00 C 975.67 5.08 981.68 11.63 985.48 19.43 C 987.96 24.16 989.16 29.39 990.46 34.54 C 994.48 28.99 997.15 22.64 1000.00 16.45 L 1000.00 47.14 C 993.13 59.30 985.99 71.39 980.88 84.43 C 974.65 100.87 971.99 118.53 971.47 136.06 C 971.16 151.84 972.76 167.85 978.00 182.81 C 979.27 186.63 981.03 190.27 982.74 193.92 C 980.37 191.11 978.56 187.89 976.89 184.63 C 968.61 168.49 964.40 150.19 965.51 132.03 C 966.25 115.83 970.60 100.11 974.92 84.56 C 979.36 68.29 981.13 50.94 977.58 34.32 C 975.60 25.71 971.72 16.95 964.27 11.72 C 953.54 4.05 938.90 3.43 926.72 7.75 C 916.31 11.38 908.33 20.07 904.07 30.07 C 897.75 44.82 896.92 61.39 898.95 77.14 C 901.69 96.66 911.40 114.20 921.29 130.93 C 929.10 144.36 937.31 157.73 942.42 172.48 C 946.92 185.17 949.36 198.57 949.75 212.02 C 949.99 216.30 949.54 220.60 950.03 224.87 C 949.21 227.19 949.26 229.68 949.02 232.10 C 947.90 244.55 945.36 256.82 942.29 268.92 C 943.91 257.70 945.95 246.38 944.85 234.99 C 944.19 226.78 942.41 218.38 938.00 211.31 C 932.33 201.24 922.06 194.42 910.99 191.65 C 896.94 188.17 881.38 191.94 870.34 201.26 C 861.39 208.72 856.29 219.84 853.89 231.05 C 851.92 240.70 851.23 250.99 854.54 260.44 C 859.50 274.95 870.26 286.38 877.10 299.93 C 884.35 314.47 887.77 331.40 884.10 347.43 C 880.44 363.79 870.26 377.93 858.16 389.20 C 867.07 377.66 875.44 364.89 877.51 350.14 C 880.02 333.78 874.50 317.46 866.82 303.22 C 857.09 284.67 843.40 268.40 834.94 249.17 C 830.91 240.35 829.09 230.64 829.08 220.97 C 828.89 206.87 831.27 192.23 838.59 179.97 C 846.15 167.00 855.90 155.21 861.49 141.15 C 866.35 129.06 866.76 114.88 861.12 102.97 C 856.76 93.74 848.42 86.69 838.85 83.32 C 824.12 77.95 807.15 80.04 793.75 88.02 C 788.03 91.36 782.88 95.66 778.45 100.58 C 769.22 110.68 762.93 123.34 759.92 136.65 C 756.30 152.82 756.79 170.01 762.15 185.74 C 766.44 198.19 773.73 209.26 780.75 220.30 C 781.43 221.36 782.09 222.44 782.74 223.54 C 788.50 233.39 794.03 243.66 796.09 255.02 C 800.07 276.29 794.35 298.26 784.09 316.95 C 789.03 302.88 792.64 288.02 791.56 273.00 C 790.66 257.54 785.08 242.75 777.56 229.35 C 777.05 228.46 776.53 227.59 776.04 226.72 C 765.62 208.47 750.84 193.01 741.94 173.84 C 737.34 164.78 733.83 155.21 730.46 145.64 C 730.06 144.32 729.66 143.00 729.29 141.68 C 726.86 133.44 725.33 124.98 723.81 116.54 C 720.73 90.11 722.55 62.99 730.37 37.50 C 732.59 30.25 735.62 23.28 738.10 16.13 C 729.47 8.13 718.49 3.47 707.40 0.00 Z" />
<path fill="#fabc31" opacity="1.00" d=" M 619.85 74.02 C 620.29 58.69 624.85 42.53 636.35 31.78 C 644.95 57.28 640.12 85.86 627.40 109.14 C 627.12 108.77 626.55 108.03 626.27 107.66 C 622.19 96.95 619.92 85.50 619.85 74.02 Z" />
<path fill="#fabc31" opacity="1.00" d=" M 604.47 107.61 C 608.13 114.00 612.58 119.87 616.91 125.81 C 612.59 132.48 608.38 139.24 604.94 146.42 C 591.59 172.52 595.02 205.18 610.95 229.38 C 614.17 234.66 618.47 239.14 622.65 243.66 C 622.17 243.88 621.23 244.34 620.75 244.56 C 616.76 241.28 613.31 237.39 609.89 233.52 C 608.66 232.06 607.48 230.58 606.31 229.08 C 594.79 213.92 587.56 195.14 587.65 175.97 C 587.44 158.31 592.09 140.96 598.51 124.63 C 600.86 119.09 602.98 113.45 604.47 107.61 Z" />
<path fill="#fabc31" opacity="1.00" d=" M 211.28 326.15 C 211.14 335.06 211.59 344.00 211.01 352.90 C 209.61 374.50 207.39 397.09 196.44 416.23 C 196.13 411.74 195.38 407.26 193.63 403.10 C 190.72 395.08 184.90 388.70 179.85 381.99 C 175.24 375.86 172.56 368.44 171.44 360.90 C 171.19 356.81 170.69 352.44 172.59 348.65 C 173.39 353.84 172.90 359.24 174.77 364.24 C 177.68 373.17 182.86 382.03 191.23 386.79 C 192.60 387.54 194.00 388.26 195.39 388.99 C 191.86 376.46 194.63 362.93 200.53 351.56 C 204.73 343.38 209.60 335.33 211.28 326.15 Z" />
<path fill="#fabc31" opacity="1.00" d=" M 126.69 337.19 C 118.23 353.63 112.07 372.35 115.17 391.02 C 118.15 409.60 129.40 425.48 141.83 439.08 C 156.59 455.46 174.23 469.25 187.10 487.30 C 198.85 503.60 203.31 524.25 202.91 544.09 C 202.78 560.61 195.04 575.56 189.80 590.85 C 184.93 604.25 181.34 618.82 184.36 633.07 C 186.71 645.04 193.29 656.39 203.54 663.26 C 215.33 671.07 230.48 672.74 244.05 669.27 C 261.22 665.36 275.42 653.12 284.49 638.34 C 298.49 614.97 300.44 585.59 292.27 559.87 C 290.15 552.95 287.09 546.36 283.55 540.06 C 270.94 518.53 249.62 504.14 235.42 483.83 C 230.27 476.58 226.46 468.39 224.18 459.80 C 218.65 440.19 220.13 419.16 225.68 399.73 C 223.98 416.44 223.63 433.66 228.64 449.88 C 232.46 462.90 239.30 474.82 247.53 485.54 C 257.76 498.91 270.39 510.14 282.95 521.24 C 283.74 522.10 284.68 522.82 285.75 523.34 C 305.48 541.45 321.92 563.13 333.88 587.10 C 334.97 589.16 335.57 591.57 337.31 593.22 C 342.14 573.12 345.22 552.59 346.13 531.94 C 347.02 516.38 347.50 500.80 347.94 485.22 C 347.96 482.68 348.23 480.14 348.55 477.62 C 349.60 482.52 350.32 487.49 351.01 492.45 C 352.65 504.87 353.48 517.45 352.34 529.95 C 350.27 554.78 346.49 579.42 342.34 603.97 C 341.80 606.10 342.82 608.12 343.46 610.10 C 345.66 616.49 347.67 622.96 349.09 629.57 C 356.58 662.64 356.89 697.61 348.12 730.46 C 360.65 736.12 375.69 734.28 387.41 727.48 C 400.93 719.76 409.64 705.47 412.73 690.45 C 417.54 667.89 413.39 644.65 408.10 622.56 C 405.62 612.13 402.58 601.80 399.09 591.66 C 389.57 560.89 377.93 530.48 373.73 498.35 C 369.48 464.83 376.16 430.51 390.45 400.06 C 386.72 416.76 386.76 434.11 389.13 451.00 C 391.79 470.32 397.45 489.14 404.97 507.10 C 407.59 513.12 410.32 519.10 413.16 525.03 C 415.77 530.36 418.26 535.76 420.81 541.12 C 438.91 579.74 458.05 618.26 469.20 659.62 C 470.36 665.08 471.91 670.46 473.03 675.94 C 473.88 679.33 473.98 682.92 475.39 686.17 C 475.46 676.57 475.99 666.99 477.07 657.46 C 479.01 639.91 483.77 622.73 490.35 606.38 C 491.42 603.94 492.67 601.59 493.66 599.13 L 493.58 598.84 C 497.54 590.82 501.56 582.83 506.29 575.23 C 510.10 569.11 514.11 563.11 518.55 557.41 C 528.10 544.54 540.17 533.86 550.35 521.51 C 560.40 509.52 569.60 496.51 575.31 481.85 C 584.36 460.06 583.72 435.58 578.24 412.99 C 587.40 435.72 590.84 461.73 582.98 485.34 C 576.99 503.09 564.30 517.26 552.71 531.54 C 541.16 545.46 531.20 561.29 527.68 579.28 C 523.27 598.38 524.34 618.94 531.55 637.23 C 537.54 652.48 547.77 666.32 561.63 675.28 C 576.96 685.10 597.06 687.97 614.15 681.20 C 623.15 677.69 630.96 671.13 635.67 662.67 C 640.87 653.47 642.98 642.61 641.95 632.12 C 640.34 615.43 632.04 600.54 624.89 585.70 C 624.01 583.69 623.01 581.73 622.08 579.76 C 612.61 560.40 612.29 537.67 617.40 517.06 C 620.18 505.36 626.60 495.02 633.56 485.40 C 649.09 464.34 668.90 446.19 680.40 422.35 C 687.15 408.72 689.96 392.92 686.73 377.93 C 684.34 365.38 678.15 354.09 672.00 343.07 C 683.25 356.85 692.41 373.05 694.76 390.92 C 697.03 407.16 693.02 423.80 685.21 438.07 C 676.71 454.61 661.72 466.48 652.10 482.26 C 643.86 495.18 643.02 511.34 645.30 526.11 C 647.44 540.10 654.22 553.85 665.95 562.19 C 677.23 570.54 691.92 574.38 705.81 571.92 C 707.27 571.66 708.71 571.34 710.17 571.01 C 723.03 567.92 734.46 559.28 740.53 547.47 C 747.47 534.50 749.43 519.49 749.41 504.96 C 749.30 500.23 749.62 495.45 748.58 490.81 C 748.26 489.35 748.17 487.86 748.32 486.39 C 750.51 486.73 749.35 489.45 749.19 490.93 C 753.04 520.02 752.92 550.29 743.73 578.44 C 743.54 578.98 743.17 580.06 742.99 580.59 C 737.11 598.03 727.51 613.99 716.23 628.44 C 705.48 643.31 693.22 657.17 684.16 673.21 C 674.27 690.04 669.08 709.53 669.15 729.04 C 668.99 742.70 671.53 757.02 679.64 768.32 C 689.25 781.78 706.78 788.07 722.91 786.31 C 732.06 785.38 741.04 781.17 746.87 773.93 C 753.96 765.21 757.21 754.10 759.28 743.23 C 760.99 732.92 761.65 722.38 760.72 711.96 C 760.33 704.54 758.62 697.27 757.73 689.91 C 754.92 670.33 754.02 650.23 758.00 630.73 C 758.75 626.76 759.88 622.88 761.21 619.06 C 762.38 615.81 763.68 612.60 764.99 609.41 C 769.78 598.74 775.83 588.45 783.80 579.84 C 776.45 591.26 770.85 603.83 767.79 617.09 C 761.93 638.50 761.02 660.94 762.96 682.97 C 764.12 695.75 766.99 708.38 771.59 720.37 C 777.71 737.07 785.22 753.25 790.56 770.24 C 794.02 779.80 795.26 789.94 796.32 800.00 L 780.27 800.00 C 779.42 786.12 776.27 772.11 769.62 759.84 C 765.77 773.12 757.25 785.04 745.55 792.50 C 741.13 795.63 735.98 797.40 731.27 800.00 L 680.76 800.00 C 667.85 795.25 655.66 787.90 646.87 777.16 C 635.96 764.48 632.24 746.93 633.84 730.57 C 635.93 709.96 643.00 690.15 652.71 671.95 C 668.95 641.22 699.44 620.33 713.05 587.97 C 705.83 592.45 697.60 595.55 689.01 595.33 C 669.83 595.00 651.63 584.41 640.31 569.18 C 644.15 588.93 652.21 607.54 656.68 627.12 C 658.76 637.15 660.50 647.69 657.74 657.77 C 654.72 669.09 647.74 678.73 641.07 688.15 C 629.91 703.29 612.63 713.72 594.07 716.68 C 581.26 718.73 567.68 716.95 556.22 710.72 C 544.48 704.61 536.00 693.90 529.23 682.80 C 516.21 661.02 512.98 634.96 513.47 610.00 C 504.95 629.60 497.19 649.79 493.88 671.00 C 490.91 689.82 492.31 709.37 498.44 727.44 C 502.27 738.83 507.13 749.96 513.55 760.14 C 522.66 774.80 533.79 788.15 546.32 800.00 L 511.58 800.00 C 508.27 795.64 505.30 791.03 502.53 786.32 C 491.69 767.14 483.37 746.35 479.52 724.60 C 478.64 730.35 478.98 736.19 478.54 741.98 C 477.49 756.96 474.76 771.80 470.79 786.27 C 469.61 790.93 468.02 795.47 466.43 800.00 L 442.95 800.00 C 446.36 788.95 447.86 777.45 449.08 765.99 C 450.06 755.32 451.83 744.72 452.24 734.00 C 452.28 719.97 452.69 705.86 450.66 691.93 C 447.85 668.90 441.40 646.48 433.03 624.90 C 423.77 599.47 412.78 574.55 406.39 548.18 C 410.84 592.95 428.26 635.69 428.77 680.95 C 429.04 700.91 428.27 721.87 419.00 740.01 C 411.92 754.07 397.69 763.86 382.24 766.33 C 370.25 768.15 357.89 764.08 348.55 756.56 C 346.15 754.72 344.14 752.37 341.45 750.93 C 336.25 765.29 328.33 778.43 320.11 791.24 C 317.95 793.94 320.26 797.20 321.03 800.00 L 275.43 800.00 C 293.55 782.99 309.80 763.65 321.25 741.48 C 331.41 722.28 337.44 700.73 338.20 678.99 C 338.03 666.55 336.47 654.08 332.85 642.15 C 327.45 623.41 318.52 605.96 309.32 588.85 C 310.34 603.55 311.27 618.39 308.95 633.03 C 306.26 651.48 298.80 669.43 286.53 683.56 C 277.73 693.62 265.15 699.96 251.96 701.74 C 233.51 704.35 214.30 698.75 199.49 687.60 C 191.65 681.80 185.51 674.12 179.59 666.47 C 172.83 657.73 167.45 647.31 167.27 636.05 C 166.26 610.17 176.78 585.69 178.63 560.12 C 168.61 576.33 151.27 588.80 131.97 590.38 C 123.61 591.25 115.34 588.91 107.97 585.09 C 115.69 599.08 126.66 610.86 138.06 621.91 C 151.33 634.38 164.95 646.79 175.30 661.91 C 187.95 680.69 197.74 701.78 201.25 724.29 C 201.94 732.16 202.21 740.23 200.34 747.97 C 196.36 766.66 182.18 781.82 165.61 790.54 C 155.72 796.00 144.57 798.47 133.47 800.00 L 123.60 800.00 C 105.52 798.46 87.20 790.90 76.15 775.99 C 72.52 771.77 70.70 766.43 67.68 761.87 C 63.28 774.07 60.88 787.01 61.17 800.00 L 45.62 800.00 C 45.49 790.65 46.61 781.30 48.68 772.19 C 53.40 751.10 61.28 730.83 65.39 709.58 C 69.97 681.43 66.91 652.29 58.52 625.13 C 55.75 615.34 51.47 606.01 46.38 597.23 C 43.66 592.59 40.30 588.39 37.25 583.98 C 41.25 587.34 44.55 591.42 47.84 595.45 C 58.56 609.18 66.33 625.15 70.24 642.14 C 74.35 660.09 74.06 678.69 73.05 696.97 C 71.23 717.14 73.21 737.99 81.11 756.77 C 85.63 767.19 92.93 777.46 104.08 781.32 C 126.35 789.21 154.31 776.74 162.00 754.04 C 168.41 735.84 165.85 715.77 160.31 697.68 C 153.19 674.50 136.97 655.70 120.49 638.50 C 113.30 630.92 106.14 623.27 99.54 615.16 C 85.92 598.92 75.79 579.85 69.91 559.48 C 63.76 536.36 61.91 512.18 63.47 488.35 C 64.25 491.50 63.19 494.72 63.54 497.90 C 64.58 514.36 67.17 531.38 75.91 545.68 C 83.07 557.93 95.94 566.42 110.02 568.22 C 126.09 570.81 143.02 564.91 154.52 553.53 C 162.91 545.46 167.79 534.31 169.32 522.87 C 171.82 504.49 168.69 484.12 155.69 470.08 C 147.38 460.52 137.58 452.38 129.12 442.96 C 117.18 429.04 108.64 411.53 107.97 392.97 C 107.20 372.88 115.17 353.32 126.69 337.19 Z" />
<path fill="#fabc31" opacity="1.00" d=" M 773.81 401.87 C 777.78 391.25 782.48 380.91 786.14 370.17 C 785.35 385.31 780.41 400.43 783.56 415.60 C 785.93 429.79 792.76 442.64 800.09 454.83 C 808.51 469.37 817.90 484.22 819.81 501.30 C 819.86 506.73 820.16 512.21 819.33 517.61 C 817.32 529.22 812.38 540.16 806.11 550.07 C 812.99 535.89 816.11 518.81 810.20 503.77 C 806.17 495.03 798.86 488.41 792.81 481.10 C 785.90 473.18 778.83 465.16 774.12 455.70 C 766.13 438.87 767.63 419.03 773.81 401.87 M 776.27 410.05 C 775.10 416.26 774.05 422.66 775.12 428.98 C 775.89 441.96 782.45 453.74 790.28 463.80 L 790.72 463.77 C 799.00 476.37 807.56 489.08 812.34 503.51 C 813.07 505.72 813.35 508.13 814.65 510.12 C 815.79 492.03 804.62 476.57 795.65 461.86 C 790.76 453.97 786.01 445.89 783.12 437.01 C 779.22 426.10 778.00 414.42 778.52 402.89 C 776.94 404.92 776.96 407.66 776.27 410.05 Z" />
<path fill="#fabc31" opacity="1.00" d=" M 80.93 414.52 C 81.28 415.09 81.63 415.67 81.97 416.25 C 81.43 424.06 81.01 431.87 79.90 439.62 C 78.43 450.76 75.75 461.81 71.17 472.09 C 63.47 489.29 48.97 501.91 35.25 514.26 C 29.00 519.69 23.18 526.50 21.90 534.96 C 20.54 542.15 23.50 549.04 24.76 556.00 C 20.91 547.13 16.76 537.92 17.13 528.03 C 16.90 521.80 19.03 515.63 22.74 510.66 C 29.99 500.40 41.19 493.92 49.08 484.25 C 59.58 470.84 64.31 452.32 59.10 435.82 C 62.50 439.75 64.59 445.05 69.30 447.69 C 71.20 449.02 73.74 447.82 74.85 446.04 C 77.06 442.77 78.10 438.86 78.71 435.01 C 80.64 430.56 80.72 425.66 81.37 420.93 C 81.56 418.79 82.08 416.49 80.93 414.52 M 70.94 455.60 C 70.04 455.08 69.15 454.57 68.26 454.06 C 67.89 459.47 65.55 464.46 63.30 469.31 C 59.92 476.68 55.21 483.33 50.01 489.52 C 46.25 493.26 42.81 497.31 38.83 500.84 C 31.39 507.92 21.77 514.59 19.68 525.31 C 21.50 523.87 22.44 521.70 24.01 520.05 C 29.78 514.03 36.97 509.66 43.22 504.19 C 47.26 500.91 50.69 496.97 54.02 493.00 C 60.23 485.32 65.84 477.13 70.36 468.34 C 72.96 463.37 74.21 457.83 75.09 452.34 C 73.78 453.51 72.40 454.61 70.94 455.60 Z" />
<path fill="#fabc31" opacity="1.00" d=" M 850.48 591.56 C 852.70 586.55 854.96 581.45 858.21 577.02 C 857.37 587.02 853.75 596.89 855.15 607.05 C 856.05 615.46 860.60 622.87 865.52 629.54 C 870.50 636.39 876.03 643.28 883.72 647.22 C 890.75 650.95 899.23 651.67 906.89 649.76 C 914.80 647.66 920.60 641.12 923.59 633.73 C 926.53 640.55 929.42 647.48 930.77 654.82 C 932.59 664.51 931.76 674.71 927.91 683.83 C 923.90 694.61 916.83 703.95 912.93 714.77 C 910.91 719.89 911.04 725.53 911.55 730.92 C 913.15 739.33 918.86 746.53 926.04 751.00 C 933.73 755.33 942.78 757.32 951.57 756.23 C 958.35 754.76 965.07 752.06 970.15 747.19 C 981.36 737.41 987.85 722.62 987.91 707.80 C 993.81 712.47 995.95 720.26 1000.00 726.39 L 1000.00 791.44 C 998.68 794.18 997.69 797.05 996.94 800.00 L 861.34 800.00 C 873.23 780.11 871.93 752.93 856.91 735.02 C 848.71 725.94 839.34 718.01 831.05 709.01 C 829.14 706.87 826.81 704.90 825.93 702.07 C 830.33 703.57 834.54 705.79 839.27 706.17 C 858.10 708.19 876.86 694.31 881.38 676.08 C 883.93 667.41 881.96 657.97 877.75 650.15 C 872.55 639.77 861.78 634.00 855.33 624.57 C 848.27 615.33 846.13 602.42 850.48 591.56 Z" />
</g>
<g id="#df3826ff">
<path fill="#df3826" opacity="1.00" d=" M 166.38 0.00 L 186.76 0.00 C 189.20 5.77 190.72 11.87 191.71 18.04 C 196.06 12.21 199.43 5.64 204.10 0.00 L 216.94 0.00 C 209.03 10.17 203.62 21.99 198.74 33.84 C 193.93 47.92 188.05 62.00 187.30 77.04 C 185.57 91.83 191.52 106.08 198.10 119.00 C 200.15 122.40 202.31 125.74 204.34 129.15 C 205.98 127.00 205.15 124.13 205.55 121.64 C 208.01 107.98 215.28 94.88 226.86 86.94 C 238.03 78.92 253.69 79.19 265.60 85.43 C 275.78 90.51 282.67 101.57 282.41 112.98 C 281.72 123.34 275.91 132.21 270.94 140.98 C 265.16 151.02 260.05 162.12 260.43 173.96 C 260.04 184.52 264.40 194.33 267.83 204.07 C 270.43 198.38 274.33 192.94 280.05 190.08 C 288.51 185.79 298.96 186.62 307.31 190.76 C 314.68 194.31 319.93 200.86 324.64 207.33 C 328.72 213.09 332.83 219.07 334.73 225.96 C 336.14 230.50 336.01 235.32 335.80 240.02 C 335.47 247.57 332.70 254.74 332.15 262.25 C 337.29 253.97 342.93 245.04 342.67 234.90 C 343.18 220.24 332.55 208.77 322.45 199.54 C 314.21 191.74 309.22 180.41 309.78 169.01 C 311.00 153.18 323.02 139.28 337.99 134.58 C 343.14 132.84 348.66 133.20 354.01 133.32 C 358.72 133.41 362.72 136.18 367.15 137.37 C 359.26 125.38 347.51 116.66 338.19 105.87 C 331.38 98.06 327.10 88.22 325.57 78.02 C 325.01 68.37 324.85 58.43 328.36 49.25 C 333.49 34.86 345.13 22.68 359.81 18.01 C 370.05 14.52 382.18 13.89 391.75 19.60 C 397.56 23.15 401.58 29.25 403.01 35.87 C 404.77 41.80 404.36 48.02 404.31 54.12 C 406.99 52.63 408.80 50.11 410.96 48.02 C 415.67 43.05 420.71 37.93 422.70 31.19 C 425.41 20.39 421.51 9.38 416.22 0.00 L 423.85 0.00 C 424.31 0.25 425.22 0.74 425.68 0.98 C 427.45 5.18 430.29 8.92 431.31 13.42 C 432.60 17.82 432.62 22.43 432.54 26.98 C 432.66 35.78 428.69 44.34 422.56 50.54 C 418.53 54.67 414.34 58.62 410.22 62.65 C 400.36 71.04 392.85 82.38 390.17 95.14 C 387.56 108.88 388.73 123.02 391.42 136.65 C 392.58 143.52 394.75 150.18 395.84 157.05 C 393.77 154.18 392.41 150.89 391.07 147.63 C 385.21 131.10 383.55 113.40 383.97 95.96 C 385.23 83.37 393.43 72.97 396.41 60.87 C 398.55 52.49 396.31 43.51 391.66 36.37 C 387.58 30.11 380.35 26.07 372.90 25.75 C 365.16 25.40 357.42 28.48 351.89 33.87 C 345.73 39.58 342.55 47.84 341.67 56.06 C 340.19 69.44 342.29 83.44 348.85 95.30 C 351.97 101.25 356.73 106.08 360.68 111.46 C 373.06 127.57 382.16 146.15 387.20 165.83 C 389.92 175.72 390.96 185.95 391.72 196.15 C 392.91 207.47 392.46 219.11 389.02 230.02 C 385.21 242.16 379.83 253.74 376.36 266.00 C 377.11 258.09 379.78 250.57 381.87 242.97 C 384.36 234.49 386.10 225.81 387.45 217.09 C 387.81 214.97 387.80 212.82 387.68 210.69 C 389.26 204.93 388.49 198.89 388.76 192.99 C 389.03 185.54 388.05 178.09 386.07 170.91 C 383.64 163.56 379.76 156.39 373.48 151.64 C 366.61 146.54 357.59 143.75 349.11 145.83 C 339.62 148.41 331.52 154.91 325.89 162.86 C 320.98 170.02 317.67 179.45 321.05 187.94 C 326.24 202.00 340.45 210.00 346.43 223.59 C 349.51 230.61 349.69 238.62 348.14 246.06 C 345.86 256.90 340.78 267.10 333.76 275.65 C 329.78 280.43 326.41 285.90 325.03 292.03 C 323.83 296.66 323.98 301.49 323.32 306.20 C 320.99 295.98 321.20 285.37 321.51 274.95 C 321.92 260.99 328.08 247.91 328.35 233.94 C 328.56 222.17 323.10 210.56 314.46 202.68 C 311.63 200.41 308.58 198.41 305.32 196.82 C 297.82 193.64 288.62 194.12 281.89 198.88 C 274.97 203.44 271.19 211.36 269.07 219.12 C 266.28 228.54 267.57 238.66 264.18 247.94 C 260.85 258.50 253.70 267.24 245.97 274.93 C 256.52 257.30 262.96 236.67 261.01 215.98 C 260.51 212.71 260.96 208.95 258.70 206.25 C 258.69 203.67 258.74 201.07 258.39 198.51 C 255.84 187.67 250.40 177.36 250.72 165.98 C 250.58 157.73 254.30 149.80 259.89 143.86 C 266.05 137.24 271.22 129.24 272.64 120.17 C 273.76 114.29 272.26 108.07 268.84 103.19 C 265.57 98.62 260.75 95.42 255.62 93.28 C 248.65 90.86 240.75 91.62 234.36 95.30 C 223.73 101.35 216.46 112.54 214.33 124.50 C 212.21 137.87 217.87 150.76 224.30 162.13 C 231.85 175.22 238.63 189.55 238.21 205.02 C 237.82 223.23 227.08 239.67 213.43 251.04 C 234.32 231.54 241.10 197.54 226.64 172.40 C 220.16 162.01 212.91 152.11 206.15 141.90 C 199.91 132.56 193.13 123.60 186.58 114.48 C 182.56 108.83 179.89 102.37 177.73 95.82 C 168.54 111.66 157.72 126.47 146.72 141.09 C 134.47 157.25 122.04 173.41 112.30 191.24 C 106.71 202.33 101.76 213.84 99.13 226.02 C 96.25 238.05 95.65 250.52 96.64 262.82 C 98.29 279.19 102.07 295.26 106.45 311.09 C 107.62 315.44 109.17 319.71 109.88 324.18 C 96.11 296.29 92.28 264.72 91.69 233.98 C 91.25 213.76 97.18 194.08 104.95 175.62 C 109.67 165.69 113.92 155.55 118.70 145.65 C 125.77 129.29 132.29 112.00 131.99 93.92 C 131.80 88.51 131.47 82.96 129.32 77.91 C 125.10 65.76 114.93 56.62 103.34 51.58 C 88.92 44.91 72.29 43.73 56.83 46.93 C 54.59 46.06 52.35 45.16 50.10 44.29 C 52.80 42.43 56.10 42.19 59.23 41.65 C 57.25 40.87 55.18 40.39 53.09 40.05 C 54.00 39.30 54.91 38.55 55.81 37.79 C 55.07 36.94 54.34 36.08 53.61 35.22 C 67.83 29.14 83.94 27.29 99.12 30.39 C 113.95 33.62 128.49 40.85 138.01 52.96 C 146.83 63.97 149.92 79.30 145.73 92.81 C 141.57 106.74 133.39 119.07 129.17 132.99 C 135.68 123.15 144.83 115.44 151.32 105.57 C 162.49 88.30 169.81 68.46 171.94 47.97 C 173.77 31.83 171.71 15.33 166.38 0.00 Z" />
<path fill="#df3826" opacity="1.00" d=" M 505.09 0.00 L 589.60 0.00 C 587.35 7.24 585.37 14.56 584.31 22.08 C 584.74 20.59 584.40 19.49 583.30 18.77 C 569.43 11.67 553.05 10.77 538.01 14.07 C 526.85 16.20 516.47 21.10 506.67 26.72 C 505.39 26.59 504.10 26.46 502.83 26.34 C 504.39 24.94 505.86 23.41 506.86 21.54 C 506.22 21.28 504.94 20.75 504.30 20.49 C 504.98 19.23 505.66 17.96 506.33 16.68 C 504.07 11.46 506.17 5.50 505.09 0.00 Z" />
<path fill="#df3826" opacity="1.00" d=" M 676.34 0.00 L 707.40 0.00 C 718.49 3.47 729.47 8.13 738.10 16.13 C 735.62 23.28 732.59 30.25 730.37 37.50 C 726.60 33.33 722.89 28.99 718.15 25.87 C 704.55 16.81 687.65 13.18 671.47 14.81 C 673.01 11.65 676.94 12.02 679.90 11.62 C 678.16 11.18 676.46 10.62 674.80 9.98 C 675.65 9.47 676.52 8.96 677.39 8.45 C 676.85 7.16 676.45 5.82 676.19 4.44 C 675.19 4.27 674.19 4.09 673.21 3.92 C 674.30 2.65 675.34 1.35 676.34 0.00 Z" />
<path fill="#df3826" opacity="1.00" d=" M 769.49 4.68 C 772.11 6.73 774.44 9.15 777.20 11.02 C 781.90 11.47 786.59 12.17 791.31 12.51 C 792.19 13.66 792.72 15.34 794.28 15.78 C 798.45 17.07 802.88 16.26 807.17 16.41 C 808.10 17.62 808.79 19.35 810.57 19.43 C 814.77 20.23 818.31 22.97 822.75 22.60 C 827.72 25.18 833.09 26.80 838.74 26.59 C 842.12 28.96 846.47 27.82 849.96 29.98 C 853.58 30.56 856.98 31.91 860.14 33.76 C 861.12 33.25 862.11 32.73 863.11 32.21 C 867.36 34.65 865.81 39.88 868.09 43.46 C 867.23 65.46 872.53 87.41 881.72 107.31 C 893.76 132.18 914.23 152.62 921.86 179.66 C 915.07 172.97 905.45 169.49 895.98 169.57 C 880.97 169.45 866.57 176.54 855.97 186.89 C 862.74 165.36 876.25 146.28 880.44 123.89 C 882.35 114.72 880.14 105.25 876.41 96.84 C 872.30 87.95 867.99 78.94 861.30 71.66 C 847.05 55.82 824.17 46.83 803.11 52.22 C 789.42 55.39 778.60 65.41 770.24 76.24 C 758.76 91.15 753.11 109.62 750.18 127.99 C 749.75 130.78 749.51 133.62 748.63 136.32 C 741.07 110.13 734.81 82.20 741.09 55.06 C 745.29 36.77 754.42 19.83 766.16 5.30 C 767.34 5.83 768.42 5.05 769.49 4.68 Z" />
<path fill="#df3826" opacity="1.00" d=" M 714.39 136.40 C 717.82 129.92 720.23 122.95 723.81 116.54 C 725.33 124.98 726.86 133.44 729.29 141.68 C 720.98 155.11 712.72 168.81 707.97 183.98 C 703.82 196.21 701.86 209.12 701.72 222.01 C 702.32 246.66 709.40 270.47 715.86 294.06 C 707.27 277.28 702.65 258.76 699.97 240.18 C 697.92 225.20 697.01 210.04 697.49 194.92 C 698.68 174.43 705.87 154.87 714.39 136.40 Z" />
<path fill="#df3826" opacity="1.00" d=" M 724.26 219.51 C 725.66 219.97 727.09 220.35 728.54 220.64 C 728.60 223.71 729.31 226.70 730.65 229.46 C 728.86 245.28 727.96 261.18 727.26 277.08 C 726.77 276.49 726.41 275.84 726.21 275.11 C 721.56 258.51 719.30 241.23 719.76 223.98 C 720.92 224.70 722.09 225.42 723.27 226.14 C 724.42 224.11 724.35 221.77 724.26 219.51 Z" />
<path fill="#df3826" opacity="1.00" d=" M 768.01 235.62 C 770.08 232.17 773.42 229.74 776.04 226.72 C 776.53 227.59 777.05 228.46 777.56 229.35 C 774.49 231.47 772.27 236.42 768.01 235.62 Z" />
<path fill="#df3826" opacity="1.00" d=" M 171.76 334.89 C 173.49 331.24 175.71 327.83 177.47 324.19 C 176.52 331.40 176.35 338.81 178.02 345.94 C 179.64 352.77 181.09 359.70 183.88 366.18 C 185.63 370.23 188.63 373.55 190.78 377.37 C 189.88 377.90 188.99 378.45 188.12 379.02 C 189.27 379.06 190.41 379.09 191.56 379.12 C 192.07 381.69 192.74 384.41 191.23 386.79 C 182.86 382.03 177.68 373.17 174.77 364.24 C 172.90 359.24 173.39 353.84 172.59 348.65 C 170.69 352.44 171.19 356.81 171.44 360.90 C 172.56 368.44 175.24 375.86 179.85 381.99 C 184.90 388.70 190.72 395.08 193.63 403.10 C 195.38 407.26 196.13 411.74 196.44 416.23 C 196.65 419.31 195.78 422.32 195.59 425.38 C 196.41 426.78 197.54 427.96 198.57 429.20 C 194.73 436.18 190.13 442.82 183.97 447.96 C 184.84 445.10 187.22 443.06 188.36 440.33 C 192.78 429.93 193.87 417.54 188.75 407.18 C 183.82 398.14 175.96 391.02 171.34 381.79 C 164.33 367.09 165.95 349.71 171.76 334.89 Z" />
<path fill="#df3826" opacity="1.00" d=" M 776.27 410.05 C 776.96 407.66 776.94 404.92 778.52 402.89 C 778.00 414.42 779.22 426.10 783.12 437.01 C 786.01 445.89 790.76 453.97 795.65 461.86 C 795.06 462.96 794.46 464.05 793.89 465.15 C 793.43 464.78 792.51 464.05 792.05 463.68 C 791.72 463.70 791.05 463.75 790.72 463.77 L 790.28 463.80 C 782.45 453.74 775.89 441.96 775.12 428.98 C 774.05 422.66 775.10 416.26 776.27 410.05 Z" />
<path fill="#df3826" opacity="1.00" d=" M 867.12 506.48 C 880.83 472.50 904.12 442.01 935.00 421.94 C 930.02 426.98 924.45 431.42 919.88 436.85 C 908.43 449.62 899.49 464.47 892.55 480.11 C 878.64 511.88 876.34 549.22 889.32 581.70 C 894.39 595.02 901.00 607.72 908.01 620.11 C 912.29 613.02 916.34 605.81 920.73 598.78 C 923.00 595.00 925.65 591.40 927.17 587.22 C 929.80 580.11 933.93 573.62 938.95 567.97 C 942.71 563.83 945.10 558.71 948.10 554.03 C 955.19 541.99 962.30 529.92 968.23 517.26 C 973.85 505.02 979.13 492.57 983.21 479.73 C 987.43 467.89 990.80 455.73 995.20 443.98 C 995.77 459.40 994.83 474.99 991.32 490.04 C 985.54 516.16 973.52 540.21 962.74 564.50 C 954.76 583.46 948.26 603.15 944.33 623.36 C 941.91 623.47 939.51 623.30 937.14 622.91 C 935.03 622.38 933.22 624.02 931.35 624.66 C 932.22 639.59 939.54 653.16 941.54 667.88 C 942.26 674.84 940.71 682.06 937.14 688.09 C 934.50 692.64 930.29 696.00 927.55 700.48 C 922.69 707.75 919.08 716.65 920.70 725.52 C 923.83 739.98 941.23 749.09 954.97 743.69 C 966.61 739.08 974.64 727.91 977.80 716.07 C 980.21 707.55 978.78 698.44 975.76 690.28 C 970.45 676.27 960.72 664.34 956.34 649.94 C 954.98 645.84 954.36 641.55 953.52 637.33 C 951.13 617.65 961.99 599.04 976.10 586.20 C 965.11 598.44 958.08 614.16 957.28 630.68 C 956.08 644.40 960.67 658.38 968.69 669.47 C 978.95 683.91 989.09 698.44 1000.00 712.40 L 1000.00 726.39 C 995.95 720.26 993.81 712.47 987.91 707.80 C 987.85 722.62 981.36 737.41 970.15 747.19 C 965.07 752.06 958.35 754.76 951.57 756.23 C 942.78 757.32 933.73 755.33 926.04 751.00 C 918.86 746.53 913.15 739.33 911.55 730.92 C 911.04 725.53 910.91 719.89 912.93 714.77 C 916.83 703.95 923.90 694.61 927.91 683.83 C 931.76 674.71 932.59 664.51 930.77 654.82 C 929.42 647.48 926.53 640.55 923.59 633.73 C 920.60 641.12 914.80 647.66 906.89 649.76 C 899.23 651.67 890.75 650.95 883.72 647.22 C 876.03 643.28 870.50 636.39 865.52 629.54 C 860.60 622.87 856.05 615.46 855.15 607.05 C 853.75 596.89 857.37 587.02 858.21 577.02 C 854.96 581.45 852.70 586.55 850.48 591.56 C 846.13 602.42 848.27 615.33 855.33 624.57 C 861.78 634.00 872.55 639.77 877.75 650.15 C 881.96 657.97 883.93 667.41 881.38 676.08 C 876.86 694.31 858.10 708.19 839.27 706.17 C 834.54 705.79 830.33 703.57 825.93 702.07 C 826.81 704.90 829.14 706.87 831.05 709.01 C 839.34 718.01 848.71 725.94 856.91 735.02 C 871.93 752.93 873.23 780.11 861.34 800.00 L 847.36 800.00 C 849.81 795.65 851.61 790.91 852.27 785.95 C 853.67 773.40 852.28 760.43 847.11 748.82 C 844.69 743.29 841.26 738.26 837.27 733.76 C 826.21 720.80 816.97 706.21 810.60 690.38 C 806.95 681.88 804.91 672.84 802.63 663.92 C 800.40 654.11 799.77 644.03 799.01 634.03 C 798.06 618.87 803.34 604.36 808.60 590.41 C 810.55 585.60 811.48 580.41 813.77 575.74 C 812.73 586.09 808.73 595.86 806.82 606.05 C 805.28 613.24 804.29 620.53 803.38 627.82 C 801.88 641.99 801.84 656.77 806.54 670.39 C 809.86 680.10 817.05 688.81 826.92 692.27 C 834.27 695.22 842.90 694.88 849.83 690.93 C 863.56 683.96 874.82 668.39 871.24 652.46 C 867.61 642.43 860.09 634.48 852.66 627.09 C 846.33 620.69 841.85 612.12 841.72 602.99 C 841.55 590.26 846.27 577.85 853.31 567.39 C 855.77 564.12 854.41 559.76 855.02 555.99 C 855.70 538.84 860.87 522.32 867.12 506.48 Z" />
<path fill="#df3826" opacity="1.00" d=" M 419.95 508.40 C 425.42 495.84 431.85 483.69 438.93 471.97 C 438.32 474.04 437.49 476.05 436.50 477.98 C 427.55 497.85 422.43 519.41 420.81 541.12 C 418.26 535.76 415.77 530.36 413.16 525.03 C 415.38 519.47 417.63 513.92 419.95 508.40 Z" />
<path fill="#df3826" opacity="1.00" d=" M 506.29 575.23 C 502.47 553.33 504.19 530.62 510.19 509.28 C 509.45 525.68 512.66 542.13 518.55 557.41 C 514.11 563.11 510.10 569.11 506.29 575.23 Z" />
<path fill="#df3826" opacity="1.00" d=" M 406.39 548.18 C 412.78 574.55 423.77 599.47 433.03 624.90 C 441.40 646.48 447.85 668.90 450.66 691.93 C 452.69 705.86 452.28 719.97 452.24 734.00 C 451.83 744.72 450.06 755.32 449.08 765.99 C 447.86 777.45 446.36 788.95 442.95 800.00 L 321.03 800.00 C 320.26 797.20 317.95 793.94 320.11 791.24 C 328.33 778.43 336.25 765.29 341.45 750.93 C 344.14 752.37 346.15 754.72 348.55 756.56 C 357.89 764.08 370.25 768.15 382.24 766.33 C 397.69 763.86 411.92 754.07 419.00 740.01 C 428.27 721.87 429.04 700.91 428.77 680.95 C 428.26 635.69 410.84 592.95 406.39 548.18 Z" />
<path fill="#df3826" opacity="1.00" d=" M 705.81 571.92 C 709.04 564.36 712.63 556.90 716.96 549.91 C 714.70 556.94 711.78 563.76 710.17 571.01 C 708.71 571.34 707.27 571.66 705.81 571.92 Z" />
<path fill="#df3826" opacity="1.00" d=" M 131.97 590.38 C 151.27 588.80 168.61 576.33 178.63 560.12 C 176.78 585.69 166.26 610.17 167.27 636.05 C 167.45 647.31 172.83 657.73 179.59 666.47 C 185.51 674.12 191.65 681.80 199.49 687.60 C 214.30 698.75 233.51 704.35 251.96 701.74 C 265.15 699.96 277.73 693.62 286.53 683.56 C 298.80 669.43 306.26 651.48 308.95 633.03 C 311.27 618.39 310.34 603.55 309.32 588.85 C 318.52 605.96 327.45 623.41 332.85 642.15 C 336.47 654.08 338.03 666.55 338.20 678.99 C 337.44 700.73 331.41 722.28 321.25 741.48 C 320.64 739.68 320.39 737.80 320.40 735.92 C 317.78 735.37 315.35 736.62 312.95 737.46 C 311.39 736.55 309.84 735.40 307.93 735.62 C 296.36 735.56 284.76 735.80 273.20 735.46 C 268.49 732.05 262.48 734.35 257.14 733.45 C 251.08 732.32 244.82 732.11 238.78 733.48 C 234.55 732.75 230.29 732.49 226.00 732.55 C 220.20 731.58 214.27 731.11 208.42 731.99 C 208.10 733.30 207.78 734.63 207.47 735.96 C 207.39 733.17 207.42 730.12 205.38 727.96 C 204.85 730.03 204.28 732.10 203.52 734.11 C 202.96 730.06 204.18 725.71 202.42 721.89 C 202.13 722.49 201.54 723.69 201.25 724.29 C 197.74 701.78 187.95 680.69 175.30 661.91 C 164.95 646.79 151.33 634.38 138.06 621.91 C 126.66 610.86 115.69 599.08 107.97 585.09 C 115.34 588.91 123.61 591.25 131.97 590.38 Z" />
<path fill="#df3826" opacity="1.00" d=" M 640.31 569.18 C 651.63 584.41 669.83 595.00 689.01 595.33 C 697.60 595.55 705.83 592.45 713.05 587.97 C 699.44 620.33 668.95 641.22 652.71 671.95 C 643.00 690.15 635.93 709.96 633.84 730.57 C 633.32 730.91 632.28 731.60 631.76 731.94 C 631.59 735.49 631.60 739.06 631.76 742.63 C 630.49 741.94 629.22 741.25 627.96 740.57 C 623.09 744.76 616.34 743.96 610.39 744.52 C 607.69 745.49 604.84 745.61 602.01 745.86 C 594.81 749.68 586.36 746.05 578.81 748.58 C 577.03 748.72 576.03 750.16 575.20 751.55 C 570.80 751.87 566.33 751.17 561.99 751.94 C 556.59 755.77 549.48 751.60 543.95 754.91 C 541.51 756.27 538.58 755.36 535.93 755.61 C 533.70 755.40 531.90 756.87 529.90 757.55 C 526.69 757.43 523.50 755.89 520.33 757.12 C 520.07 758.39 519.82 759.68 519.58 760.97 C 519.18 758.62 519.17 755.84 516.87 754.46 C 516.17 756.11 515.74 757.86 515.53 759.65 C 515.15 759.28 514.39 758.54 514.01 758.17 C 513.90 758.66 513.67 759.64 513.55 760.14 C 507.13 749.96 502.27 738.83 498.44 727.44 C 492.31 709.37 490.91 689.82 493.88 671.00 C 497.19 649.79 504.95 629.60 513.47 610.00 C 512.98 634.96 516.21 661.02 529.23 682.80 C 536.00 693.90 544.48 704.61 556.22 710.72 C 567.68 716.95 581.26 718.73 594.07 716.68 C 612.63 713.72 629.91 703.29 641.07 688.15 C 647.74 678.73 654.72 669.09 657.74 657.77 C 660.50 647.69 658.76 637.15 656.68 627.12 C 652.21 607.54 644.15 588.93 640.31 569.18 Z" />
<path fill="#df3826" opacity="1.00" d=" M 486.48 577.94 C 489.55 584.65 491.08 591.92 493.58 598.84 L 493.66 599.13 C 492.67 601.59 491.42 603.94 490.35 606.38 C 488.63 596.98 487.56 587.44 486.48 577.94 Z" />
<path fill="#df3826" opacity="1.00" d=" M 797.14 683.89 C 807.29 700.65 808.98 720.84 810.06 739.98 C 810.63 756.10 798.08 768.93 797.34 784.84 C 797.09 790.14 798.92 795.20 800.99 800.00 L 796.32 800.00 C 795.26 789.94 794.02 779.80 790.56 770.24 C 801.06 759.00 805.13 743.13 804.49 728.04 C 804.51 712.98 799.95 698.52 797.14 683.89 Z" />
<path fill="#df3826" opacity="1.00" d=" M 996.94 800.00 C 997.69 797.05 998.68 794.18 1000.00 791.44 L 1000.00 800.00 L 996.94 800.00 Z" />
</g>
<g id="#9c1b1dff">
<path fill="#9c1b1d" opacity="1.00" d=" M 423.85 0.00 L 425.54 0.00 L 425.68 0.98 C 425.22 0.74 424.31 0.25 423.85 0.00 Z" />
<path fill="#9c1b1d" opacity="1.00" d=" M 454.49 0.00 L 505.09 0.00 C 506.17 5.50 504.07 11.46 506.33 16.68 C 505.66 17.96 504.98 19.23 504.30 20.49 C 504.94 20.75 506.22 21.28 506.86 21.54 C 505.86 23.41 504.39 24.94 502.83 26.34 C 504.10 26.46 505.39 26.59 506.67 26.72 C 489.38 37.48 475.46 53.82 467.91 72.77 C 460.40 91.95 461.36 113.11 464.25 133.13 C 466.71 148.22 468.05 163.73 465.66 178.91 C 462.29 154.42 447.58 133.24 443.52 108.91 C 439.96 83.42 439.66 57.25 445.02 31.99 C 447.23 21.07 450.94 10.54 454.49 0.00 Z" />
<path fill="#9c1b1d" opacity="1.00" d=" M 589.60 0.00 L 613.43 0.00 C 612.98 2.96 611.53 5.62 610.70 8.47 C 606.14 22.86 603.37 37.86 603.01 52.96 C 602.99 62.15 603.35 71.58 606.51 80.32 C 605.99 69.69 608.00 58.98 612.32 49.26 C 620.48 30.72 635.88 15.79 653.99 6.96 C 660.00 3.87 666.54 2.08 672.95 0.00 L 676.34 0.00 C 675.34 1.35 674.30 2.65 673.21 3.92 C 674.19 4.09 675.19 4.27 676.19 4.44 C 676.45 5.82 676.85 7.16 677.39 8.45 C 676.52 8.96 675.65 9.47 674.80 9.98 C 676.46 10.62 678.16 11.18 679.90 11.62 C 676.94 12.02 673.01 11.65 671.47 14.81 C 663.41 16.14 655.38 18.18 648.32 22.43 C 643.92 24.99 640.19 28.49 636.35 31.78 C 624.85 42.53 620.29 58.69 619.85 74.02 C 619.92 85.50 622.19 96.95 626.27 107.66 C 626.55 108.03 627.12 108.77 627.40 109.14 C 627.62 112.41 629.26 115.32 630.59 118.25 C 633.34 123.88 635.93 129.64 639.42 134.87 C 645.32 144.40 651.48 153.78 658.08 162.85 C 655.77 162.79 654.10 161.06 652.33 159.82 C 639.12 150.10 626.75 138.99 616.91 125.81 C 612.58 119.87 608.13 114.00 604.47 107.61 C 593.68 89.28 585.83 68.90 583.66 47.64 C 583.31 39.12 582.89 30.52 584.31 22.08 C 585.37 14.56 587.35 7.24 589.60 0.00 Z" />
<path fill="#9c1b1d" opacity="1.00" d=" M 770.85 0.00 L 891.51 0.00 C 888.11 2.75 884.60 5.41 881.65 8.65 C 873.03 18.09 868.69 30.82 868.09 43.46 C 865.81 39.88 867.36 34.65 863.11 32.21 C 862.11 32.73 861.12 33.25 860.14 33.76 C 856.98 31.91 853.58 30.56 849.96 29.98 C 846.47 27.82 842.12 28.96 838.74 26.59 C 833.09 26.80 827.72 25.18 822.75 22.60 C 818.31 22.97 814.77 20.23 810.57 19.43 C 808.79 19.35 808.10 17.62 807.17 16.41 C 802.88 16.26 798.45 17.07 794.28 15.78 C 792.72 15.34 792.19 13.66 791.31 12.51 C 786.59 12.17 781.90 11.47 777.20 11.02 C 774.44 9.15 772.11 6.73 769.49 4.68 C 768.42 5.05 767.34 5.83 766.16 5.30 C 767.68 3.50 769.21 1.70 770.85 0.00 Z" />
<path fill="#9c1b1d" opacity="1.00" d=" M 968.68 0.00 L 1000.00 0.00 L 1000.00 16.45 C 997.15 22.64 994.48 28.99 990.46 34.54 C 989.16 29.39 987.96 24.16 985.48 19.43 C 981.68 11.63 975.67 5.08 968.68 0.00 Z" />
<path fill="#9c1b1d" opacity="1.00" d=" M 0.00 2.21 C 8.80 1.92 17.61 1.45 26.42 1.57 C 24.00 5.02 20.99 8.00 18.62 11.49 C 11.73 21.39 6.76 32.56 3.54 44.17 C 2.20 48.47 1.59 52.97 0.00 57.20 L 0.00 2.21 Z" />
<path fill="#9c1b1d" opacity="1.00" d=" M 2.67 91.90 C 8.87 66.01 29.47 45.34 53.61 35.22 C 54.34 36.08 55.07 36.94 55.81 37.79 C 54.91 38.55 54.00 39.30 53.09 40.05 C 55.18 40.39 57.25 40.87 59.23 41.65 C 56.10 42.19 52.80 42.43 50.10 44.29 C 52.35 45.16 54.59 46.06 56.83 46.93 C 49.24 49.82 41.56 52.85 35.49 58.47 C 22.09 68.24 15.18 84.83 14.45 101.07 C 13.36 118.85 18.60 136.46 26.60 152.17 C 34.06 166.91 43.00 180.85 52.84 194.12 C 48.40 192.22 44.77 188.93 40.97 186.05 C 24.71 173.61 10.95 158.05 0.00 140.79 L 0.00 111.50 C 1.28 105.03 0.87 98.30 2.67 91.90 Z" />
<path fill="#9c1b1d" opacity="1.00" d=" M 390.17 95.14 C 392.85 82.38 400.36 71.04 410.22 62.65 C 407.87 81.44 407.64 100.56 410.89 119.25 C 410.27 120.13 409.77 121.07 409.38 122.06 C 402.15 146.38 393.15 170.59 391.72 196.15 C 390.96 185.95 389.92 175.72 387.20 165.83 C 389.37 159.98 389.24 153.59 391.07 147.63 C 392.41 150.89 393.77 154.18 395.84 157.05 C 394.75 150.18 392.58 143.52 391.42 136.65 C 393.17 131.97 392.85 126.86 393.22 121.95 C 393.65 114.41 392.71 106.91 391.91 99.42 C 391.55 97.93 391.66 96.04 390.17 95.14 Z" />
<path fill="#9c1b1d" opacity="1.00" d=" M 778.45 100.58 C 782.88 95.66 788.03 91.36 793.75 88.02 C 805.19 114.46 812.82 143.87 807.95 172.76 C 804.77 191.64 795.32 209.24 782.74 223.54 C 782.09 222.44 781.43 221.36 780.75 220.30 C 790.40 205.92 797.06 189.33 798.58 172.00 C 799.05 162.10 798.97 152.14 797.14 142.37 C 794.33 127.20 786.36 113.61 778.45 100.58 Z" />
<path fill="#9c1b1d" opacity="1.00" d=" M 255.62 93.28 C 260.75 95.42 265.57 98.62 268.84 103.19 C 258.79 116.27 250.47 131.44 248.61 148.08 C 246.22 164.82 249.58 182.10 256.83 197.28 C 257.09 198.02 257.61 198.43 258.39 198.51 C 258.74 201.07 258.69 203.67 258.70 206.25 C 248.82 193.56 242.09 178.11 240.29 162.08 C 239.79 151.67 240.04 141.13 242.29 130.92 C 244.34 122.43 246.79 114.02 250.21 105.97 C 251.85 101.67 254.44 97.76 255.62 93.28 Z" />
<path fill="#9c1b1d" opacity="1.00" d=" M 730.46 145.64 C 733.83 155.21 737.34 164.78 741.94 173.84 C 741.32 179.40 739.19 184.61 737.98 190.04 C 734.50 202.97 732.69 216.25 730.65 229.46 C 729.31 226.70 728.60 223.71 728.54 220.64 C 727.09 220.35 725.66 219.97 724.26 219.51 C 724.35 221.77 724.42 224.11 723.27 226.14 C 722.09 225.42 720.92 224.70 719.76 223.98 C 720.44 197.54 727.47 171.83 730.46 145.64 Z" />
<path fill="#9c1b1d" opacity="1.00" d=" M 386.07 170.91 C 388.05 178.09 389.03 185.54 388.76 192.99 C 388.49 198.89 389.26 204.93 387.68 210.69 C 385.00 201.73 385.04 192.20 385.37 182.94 C 385.39 178.91 386.47 174.94 386.07 170.91 Z" />
<path fill="#9c1b1d" opacity="1.00" d=" M 498.12 193.84 C 504.24 208.28 507.16 223.97 507.82 239.59 C 507.61 239.52 507.18 239.37 506.97 239.29 C 507.85 236.57 506.85 233.78 506.37 231.08 C 503.88 218.61 500.54 206.33 498.12 193.84 Z" />
<path fill="#9c1b1d" opacity="1.00" d=" M 305.32 196.82 C 308.58 198.41 311.63 200.41 314.46 202.68 C 309.53 218.53 303.14 234.13 294.13 248.11 C 295.10 244.89 296.47 241.83 297.68 238.71 C 302.79 225.35 305.03 211.07 305.32 196.82 Z" />
<path fill="#9c1b1d" opacity="1.00" d=" M 214.50 299.14 C 217.01 311.91 217.43 325.03 217.60 338.02 C 217.42 368.06 212.53 398.43 200.29 426.02 C 199.79 427.11 199.18 428.16 198.57 429.20 C 197.54 427.96 196.41 426.78 195.59 425.38 C 195.78 422.32 196.65 419.31 196.44 416.23 C 207.39 397.09 209.61 374.50 211.01 352.90 C 211.59 344.00 211.14 335.06 211.28 326.15 C 209.60 335.33 204.73 343.38 200.53 351.56 C 194.63 362.93 191.86 376.46 195.39 388.99 C 194.00 388.26 192.60 387.54 191.23 386.79 C 192.74 384.41 192.07 381.69 191.56 379.12 C 190.41 379.09 189.27 379.06 188.12 379.02 C 188.99 378.45 189.88 377.90 190.78 377.37 C 191.01 377.40 191.47 377.45 191.70 377.47 C 190.13 373.52 190.05 369.21 190.09 365.02 C 190.35 357.96 191.01 350.77 193.74 344.17 C 198.36 333.07 206.43 323.76 210.63 312.45 C 212.20 308.11 214.32 303.83 214.50 299.14 Z" />
<path fill="#9c1b1d" opacity="1.00" d=" M 793.89 465.15 C 794.46 464.05 795.06 462.96 795.65 461.86 C 804.62 476.57 815.79 492.03 814.65 510.12 C 813.35 508.13 813.07 505.72 812.34 503.51 C 807.56 489.08 799.00 476.37 790.72 463.77 C 791.05 463.75 791.72 463.70 792.05 463.68 C 792.51 464.05 793.43 464.78 793.89 465.15 Z" />
<path fill="#9c1b1d" opacity="1.00" d=" M 282.95 521.24 C 284.56 518.44 287.69 520.92 285.75 523.34 C 284.68 522.82 283.74 522.10 282.95 521.24 Z" />
<path fill="#9c1b1d" opacity="1.00" d=" M 474.59 650.00 C 475.32 647.20 475.34 643.84 477.69 641.81 C 477.79 647.04 474.16 652.57 477.07 657.46 C 475.99 666.99 475.46 676.57 475.39 686.17 C 473.98 682.92 473.88 679.33 473.03 675.94 C 471.91 670.46 470.36 665.08 469.20 659.62 C 469.58 657.23 469.59 654.82 469.38 652.42 C 470.34 651.69 471.30 650.97 472.27 650.25 C 472.60 648.48 472.96 646.72 473.37 644.98 C 473.82 646.64 474.25 648.30 474.59 650.00 Z" />
<path fill="#9c1b1d" opacity="1.00" d=" M 202.42 721.89 C 204.18 725.71 202.96 730.06 203.52 734.11 C 204.28 732.10 204.85 730.03 205.38 727.96 C 207.42 730.12 207.39 733.17 207.47 735.96 C 207.78 734.63 208.10 733.30 208.42 731.99 C 214.27 731.11 220.20 731.58 226.00 732.55 C 230.29 732.49 234.55 732.75 238.78 733.48 C 244.82 732.11 251.08 732.32 257.14 733.45 C 262.48 734.35 268.49 732.05 273.20 735.46 C 284.76 735.80 296.36 735.56 307.93 735.62 C 309.84 735.40 311.39 736.55 312.95 737.46 C 315.35 736.62 317.78 735.37 320.40 735.92 C 320.39 737.80 320.64 739.68 321.25 741.48 C 309.80 763.65 293.55 782.99 275.43 800.00 L 133.47 800.00 C 144.57 798.47 155.72 796.00 165.61 790.54 C 182.18 781.82 196.36 766.66 200.34 747.97 C 202.21 740.23 201.94 732.16 201.25 724.29 C 201.54 723.69 202.13 722.49 202.42 721.89 Z" />
<path fill="#9c1b1d" opacity="1.00" d=" M 478.54 741.98 C 478.98 736.19 478.64 730.35 479.52 724.60 C 483.37 746.35 491.69 767.14 502.53 786.32 C 501.20 786.29 499.89 786.13 498.59 785.88 C 492.81 786.62 486.84 786.35 481.03 785.86 C 477.64 786.36 474.21 787.01 470.79 786.27 C 474.76 771.80 477.49 756.96 478.54 741.98 Z" />
<path fill="#9c1b1d" opacity="1.00" d=" M 631.76 731.94 C 632.28 731.60 633.32 730.91 633.84 730.57 C 632.24 746.93 635.96 764.48 646.87 777.16 C 655.66 787.90 667.85 795.25 680.76 800.00 L 546.32 800.00 C 533.79 788.15 522.66 774.80 513.55 760.14 C 513.67 759.64 513.90 758.66 514.01 758.17 C 514.39 758.54 515.15 759.28 515.53 759.65 C 515.74 757.86 516.17 756.11 516.87 754.46 C 519.17 755.84 519.18 758.62 519.58 760.97 C 519.82 759.68 520.07 758.39 520.33 757.12 C 523.50 755.89 526.69 757.43 529.90 757.55 C 531.90 756.87 533.70 755.40 535.93 755.61 C 538.58 755.36 541.51 756.27 543.95 754.91 C 549.48 751.60 556.59 755.77 561.99 751.94 C 566.33 751.17 570.80 751.87 575.20 751.55 C 576.03 750.16 577.03 748.72 578.81 748.58 C 586.36 746.05 594.81 749.68 602.01 745.86 C 604.84 745.61 607.69 745.49 610.39 744.52 C 616.34 743.96 623.09 744.76 627.96 740.57 C 629.22 741.25 630.49 741.94 631.76 742.63 C 631.60 739.06 631.59 735.49 631.76 731.94 Z" />
<path fill="#9c1b1d" opacity="1.00" d=" M 769.62 759.84 C 776.27 772.11 779.42 786.12 780.27 800.00 L 731.27 800.00 C 735.98 797.40 741.13 795.63 745.55 792.50 C 757.25 785.04 765.77 773.12 769.62 759.84 Z" />
<path fill="#9c1b1d" opacity="1.00" d=" M 67.68 761.87 C 70.70 766.43 72.52 771.77 76.15 775.99 C 87.20 790.90 105.52 798.46 123.60 800.00 L 61.17 800.00 C 60.88 787.01 63.28 774.07 67.68 761.87 Z" />
</g>
<g id="#0c0001ff">
</g>
</svg>
