<?xml version="1.0" encoding="UTF-8" ?>
<!DOCTYPE svg PUBLIC "-//W3C//DTD SVG 1.1//EN" "http://www.w3.org/Graphics/SVG/1.1/DTD/svg11.dtd">
<svg width="762pt" height="412pt" viewBox="0 0 762 412" version="1.1" xmlns="http://www.w3.org/2000/svg">
<g id="#000000ff">
<path fill="#000000" opacity="1.00" d=" M 0.00 0.00 L 762.00 0.00 L 762.00 412.00 L 0.00 412.00 L 0.00 0.00 M 121.71 34.92 C 121.53 64.27 121.64 93.64 121.66 122.99 C 123.85 128.81 129.10 135.09 135.96 134.29 C 152.64 134.28 169.32 134.25 186.01 134.31 C 188.90 134.25 191.92 134.65 194.70 133.66 C 197.78 132.38 200.34 130.06 202.35 127.44 C 203.00 124.07 202.65 120.60 202.76 117.19 C 206.35 117.21 210.18 117.72 213.40 115.74 C 213.34 111.71 213.34 107.68 213.41 103.65 C 215.08 103.55 216.78 103.60 218.44 103.29 C 223.71 98.65 228.84 93.82 234.19 89.28 C 238.36 90.33 239.96 95.70 244.06 97.13 C 250.07 97.37 256.10 97.23 262.12 97.26 C 264.70 97.42 266.28 95.19 267.97 93.65 C 273.84 93.38 279.74 93.90 285.60 93.40 C 287.67 92.59 288.99 90.54 290.94 89.48 C 295.97 89.34 301.01 89.40 306.05 89.44 C 310.23 91.86 313.14 96.20 317.46 98.36 C 323.80 98.87 330.21 98.52 336.57 98.45 C 342.99 90.55 349.99 83.16 356.58 75.41 C 357.94 74.27 357.68 72.44 357.91 70.86 C 353.95 66.89 349.94 62.97 345.99 59.00 C 344.15 57.31 342.36 55.36 339.97 54.49 C 337.99 54.21 335.99 54.29 334.00 54.28 C 295.01 54.30 256.02 54.28 217.02 54.30 C 215.32 54.30 213.67 53.86 212.01 53.59 C 213.68 50.29 212.54 46.31 212.74 42.74 C 210.31 39.91 205.92 41.77 202.62 41.42 C 202.74 38.29 202.80 35.15 202.51 32.02 C 200.14 27.93 195.99 24.08 190.97 24.19 C 172.30 24.16 153.63 24.16 134.96 24.18 C 128.46 23.49 124.09 29.71 121.71 34.92 M 369.97 69.17 C 368.59 72.50 368.83 76.30 368.82 79.85 C 365.55 79.70 362.26 79.64 359.05 80.31 C 358.32 84.60 358.66 88.96 358.67 93.28 C 354.95 93.41 351.24 93.37 347.53 93.50 C 344.66 97.91 341.14 101.85 337.96 106.04 C 336.73 107.53 335.57 109.15 333.91 110.20 C 330.23 110.23 326.57 109.72 322.90 110.20 C 315.38 110.45 312.59 100.10 305.06 100.57 C 300.03 100.68 294.99 100.45 289.96 100.67 C 287.76 101.93 286.38 104.34 284.04 105.35 C 278.75 105.47 273.45 105.33 268.17 105.41 C 265.53 105.31 264.57 108.97 261.89 108.71 C 256.44 108.70 250.94 109.08 245.54 108.42 C 242.71 105.90 240.28 102.96 237.48 100.42 C 235.81 99.84 233.75 100.19 232.61 101.61 C 226.05 108.05 219.54 114.55 213.01 121.02 C 211.37 122.33 210.76 124.88 212.52 126.37 C 217.67 131.86 223.25 136.95 228.39 142.46 C 271.81 142.90 315.25 142.42 358.68 142.71 C 358.84 146.99 357.87 151.52 359.70 155.57 C 362.65 155.62 365.61 155.66 368.57 155.60 C 369.70 159.12 368.93 162.86 369.69 166.42 C 372.39 169.34 375.59 172.91 379.92 172.74 C 397.96 172.81 416.00 172.73 434.04 172.77 C 436.72 172.76 439.43 172.83 442.07 172.28 C 445.75 169.85 449.01 166.38 450.28 162.07 C 450.40 134.72 450.27 107.36 450.35 80.01 C 450.29 76.68 450.82 73.00 448.77 70.12 C 446.16 66.71 442.73 62.96 438.03 63.20 C 419.04 63.20 400.04 63.22 381.05 63.20 C 376.61 63.00 372.65 65.89 369.97 69.17 M 432.06 181.91 C 422.05 187.36 415.94 197.61 412.01 207.96 C 406.65 222.78 406.40 239.13 410.18 254.34 C 412.80 265.21 419.08 275.52 428.66 281.56 C 436.64 287.16 446.20 289.68 455.48 292.20 C 460.16 293.38 464.95 294.98 468.46 298.45 C 468.39 301.33 469.12 304.70 466.86 306.98 C 461.84 311.62 454.25 311.31 448.10 309.53 C 436.94 306.49 427.99 298.30 421.74 288.82 C 420.86 289.89 420.05 291.03 419.55 292.33 C 415.11 303.07 410.13 313.57 405.38 324.18 C 404.90 325.40 403.88 326.95 404.89 328.19 C 415.46 343.99 433.76 354.86 453.02 354.54 C 464.92 355.22 477.35 351.51 485.94 343.01 C 495.46 333.52 499.81 320.12 501.48 307.07 C 501.73 299.06 501.82 291.03 501.46 283.03 C 500.47 275.78 498.11 268.70 494.58 262.30 C 488.61 252.22 478.38 245.34 467.46 241.60 C 459.54 238.42 450.73 237.27 443.49 232.57 C 440.74 230.87 441.50 227.31 441.70 224.61 C 443.13 219.73 448.96 220.21 452.99 220.44 C 464.53 221.49 474.05 229.04 482.03 236.87 C 486.86 226.11 492.35 215.68 497.25 204.96 C 497.94 203.15 499.53 201.30 498.76 199.27 C 490.96 189.45 480.36 181.57 468.18 178.16 C 456.27 175.01 442.78 175.21 432.06 181.91 M 121.78 178.62 C 119.44 191.16 116.18 203.54 113.52 216.03 C 110.22 231.38 105.94 246.52 103.05 261.95 C 97.63 239.06 92.36 216.12 87.06 193.20 C 85.79 188.32 85.06 183.29 83.32 178.54 C 68.33 178.68 53.35 178.62 38.36 178.59 C 38.14 236.32 38.27 294.06 38.30 351.79 C 49.25 351.52 60.21 351.55 71.17 351.74 C 71.40 321.50 71.15 291.25 71.29 261.00 C 71.11 256.68 71.16 252.35 71.51 248.04 C 78.92 282.71 87.59 317.11 95.57 351.66 C 100.51 351.67 105.45 351.62 110.39 351.69 C 112.78 338.94 116.55 326.51 119.27 313.83 C 124.10 291.83 129.63 269.99 134.42 247.98 C 134.96 282.56 134.44 317.19 134.72 351.79 C 145.66 351.52 156.61 351.59 167.55 351.77 C 167.45 294.02 167.58 236.28 167.53 178.54 C 152.28 178.72 137.03 178.54 121.78 178.62 M 301.58 178.59 C 301.59 236.30 301.64 294.01 301.56 351.72 C 312.49 351.65 323.43 351.47 334.37 351.78 C 334.63 333.65 334.49 315.50 334.44 297.36 C 338.57 297.33 342.69 297.28 346.82 297.28 C 348.23 304.84 350.93 312.07 352.72 319.54 C 355.80 330.23 358.62 341.00 361.66 351.72 C 374.11 351.56 386.57 351.57 399.03 351.73 C 398.48 348.63 397.41 345.66 396.36 342.71 C 391.73 327.89 386.81 313.17 382.08 298.38 C 381.24 295.70 380.00 293.04 380.20 290.17 C 381.89 287.91 384.21 286.19 385.96 283.97 C 395.87 271.26 398.91 254.75 399.26 239.00 C 399.01 226.33 397.39 213.43 392.06 201.81 C 386.63 189.86 375.61 179.47 361.99 178.64 C 341.86 178.56 321.72 178.68 301.58 178.59 M 541.34 178.58 C 534.90 205.66 528.92 232.85 522.39 259.91 C 515.49 290.53 507.91 321.01 501.22 351.69 C 513.74 351.60 526.26 351.63 538.78 351.65 C 539.50 344.92 541.76 338.41 541.83 331.61 C 555.28 331.32 568.75 331.37 582.20 331.55 C 582.76 338.39 584.60 345.04 585.73 351.80 C 598.08 351.47 610.45 351.56 622.81 351.75 C 622.57 346.55 620.85 341.60 619.71 336.56 C 609.54 293.08 599.27 249.64 589.46 206.08 C 587.47 196.91 584.44 187.95 583.21 178.63 C 569.25 178.58 555.29 178.66 541.34 178.58 M 629.42 178.52 C 629.42 236.27 629.46 294.03 629.40 351.79 C 640.38 351.44 651.36 351.71 662.34 351.66 C 662.30 322.42 662.11 293.17 662.37 263.94 C 671.80 286.73 683.17 308.66 692.96 331.30 C 696.29 337.96 698.94 344.96 702.44 351.53 C 713.05 351.83 723.70 351.46 734.33 351.68 C 734.16 294.02 734.24 236.36 734.30 178.70 C 723.34 178.46 712.37 178.76 701.42 178.54 C 700.87 205.77 701.60 233.01 701.05 260.23 C 693.01 243.52 685.50 226.54 677.46 209.82 C 673.12 199.63 667.57 189.94 663.93 179.46 C 652.70 179.63 641.47 179.55 630.24 179.52 C 637.81 179.28 645.41 179.54 653.00 179.46 C 656.42 179.35 659.94 179.82 663.28 178.82 C 652.01 178.29 640.70 178.86 629.42 178.52 M 213.57 179.49 C 201.28 233.22 188.62 286.88 176.10 340.56 C 175.23 344.25 174.23 347.93 174.07 351.74 C 186.47 351.50 198.88 351.69 211.28 351.64 C 212.20 344.88 213.93 338.24 214.81 331.46 C 228.01 331.49 241.21 331.38 254.41 331.47 C 255.05 338.26 257.55 344.76 257.78 351.61 C 270.36 351.73 282.95 351.47 295.54 351.76 C 292.46 335.40 287.78 319.37 284.36 303.08 C 280.01 284.12 275.44 265.20 271.29 246.19 C 266.20 225.45 261.43 204.63 256.62 183.82 C 256.22 182.08 256.04 180.19 254.98 178.70 C 241.66 178.53 228.33 178.64 215.01 178.64 C 214.65 178.85 213.93 179.28 213.57 179.49 M 40.70 360.28 C 40.72 369.75 40.62 379.23 40.69 388.70 C 48.13 388.91 55.58 388.44 63.00 389.19 C 69.21 389.56 75.40 388.85 81.60 388.67 C 81.59 387.19 81.59 385.71 81.60 384.23 C 72.68 383.81 63.74 384.39 54.81 383.89 C 54.86 375.99 54.88 368.10 54.79 360.21 C 50.10 360.43 45.40 360.37 40.70 360.28 M 91.15 360.34 C 90.58 369.80 90.92 379.30 90.94 388.77 C 104.54 388.70 118.15 388.86 131.75 388.74 C 131.74 387.21 131.73 385.69 131.72 384.18 C 122.94 383.99 114.16 384.19 105.38 384.04 C 105.30 376.16 105.30 368.28 105.42 360.41 C 100.67 360.27 95.91 360.38 91.15 360.34 M 156.56 360.51 C 151.28 370.10 144.45 378.84 139.68 388.69 C 144.15 388.81 148.63 388.83 153.10 388.63 C 154.75 387.42 155.12 385.31 155.85 383.54 C 161.83 383.20 167.83 383.30 173.82 383.36 C 176.98 383.57 176.46 389.10 179.95 388.75 C 183.97 388.85 187.99 388.77 192.01 388.61 C 186.82 378.86 180.23 369.93 174.74 360.34 C 168.68 360.57 162.60 360.02 156.56 360.51 M 186.85 360.45 C 191.14 368.15 196.40 375.26 201.04 382.75 C 202.28 384.81 203.62 386.82 205.14 388.69 C 209.95 388.69 214.76 388.92 219.57 388.65 C 223.51 382.52 227.40 376.37 231.32 370.23 C 233.36 367.01 235.97 364.07 237.18 360.41 C 232.61 360.39 228.03 360.18 223.47 360.47 C 219.70 367.02 216.08 373.68 211.98 380.04 C 208.91 374.14 205.46 368.45 202.32 362.60 C 201.67 361.74 201.19 360.17 199.84 360.39 C 195.51 360.27 191.18 360.32 186.85 360.45 M 245.61 360.35 C 245.76 369.99 245.60 379.62 245.71 389.26 C 259.63 389.24 273.56 389.12 287.49 389.34 C 287.55 387.60 287.60 385.87 287.66 384.14 C 278.50 383.97 269.33 384.23 260.18 383.94 C 260.22 381.53 260.23 379.13 260.21 376.72 C 267.33 376.82 274.45 376.87 281.57 376.68 C 281.56 375.22 281.57 373.77 281.59 372.32 C 274.50 372.06 267.40 372.44 260.31 372.08 C 260.31 369.64 260.31 367.20 260.28 364.77 C 269.39 364.70 278.51 364.82 287.62 364.68 C 287.60 363.22 287.60 361.77 287.61 360.32 C 273.61 360.45 259.61 360.27 245.61 360.35 M 295.35 363.67 C 295.31 367.29 295.25 370.90 295.25 374.52 C 304.36 376.11 313.59 377.01 322.81 377.84 C 322.82 379.64 322.84 381.45 322.74 383.26 C 318.58 384.88 313.87 383.83 309.50 383.74 C 309.46 382.33 309.42 380.92 309.38 379.52 C 304.69 379.42 299.99 379.48 295.30 379.46 C 295.66 381.72 294.34 384.83 296.63 386.34 C 299.51 388.73 303.44 388.55 306.96 388.72 C 314.27 388.83 321.59 388.87 328.90 388.60 C 331.97 388.60 334.71 387.03 337.29 385.53 C 337.14 381.89 337.10 378.23 337.36 374.60 C 328.06 373.18 318.71 372.36 309.38 371.28 C 309.39 369.39 309.41 367.50 309.42 365.61 C 313.73 364.37 318.28 364.52 322.65 365.36 C 322.78 366.81 322.93 368.27 323.09 369.72 C 327.87 369.75 332.66 369.77 337.44 369.59 C 337.32 367.63 337.41 365.65 337.13 363.71 C 334.43 361.25 330.61 360.44 327.05 360.45 C 319.39 360.34 311.72 360.30 304.06 360.49 C 300.86 360.46 297.89 361.83 295.35 363.67 M 432.41 360.71 C 430.10 361.48 426.21 361.96 426.37 365.15 C 426.38 371.94 425.88 378.81 426.65 385.56 C 431.90 390.07 439.59 388.30 446.00 388.80 C 453.04 388.34 460.79 390.07 467.17 386.26 C 468.64 383.39 468.07 380.08 468.17 376.99 C 468.04 373.00 468.44 368.99 468.01 365.03 C 467.50 361.67 463.48 361.19 460.77 360.60 C 451.33 360.30 441.83 360.10 432.41 360.71 M 478.51 360.31 C 478.66 369.96 478.37 379.62 478.65 389.27 C 483.16 389.44 487.79 388.65 492.22 389.75 C 492.30 390.26 492.46 391.26 492.54 391.77 C 492.99 385.53 492.73 379.27 493.23 373.04 C 497.07 377.10 501.51 380.52 505.37 384.57 C 506.85 385.97 508.14 387.69 510.00 388.63 C 514.44 388.89 518.89 388.79 523.34 388.70 C 523.33 379.23 523.45 369.77 523.28 360.30 C 518.60 360.39 513.92 360.41 509.24 360.25 C 509.18 365.56 509.39 370.88 509.07 376.19 C 503.01 371.59 498.11 365.65 492.48 360.57 C 487.86 360.03 483.16 360.52 478.51 360.31 M 560.76 362.74 C 558.86 367.26 560.09 372.23 559.76 376.98 C 559.99 380.00 558.97 383.48 560.97 386.09 C 563.67 388.50 567.53 388.56 570.96 388.68 C 578.56 388.80 586.17 388.86 593.77 388.60 C 596.28 388.26 599.14 387.89 601.02 386.03 C 602.76 384.29 602.23 381.68 602.52 379.47 C 597.83 379.31 593.14 379.49 588.46 379.36 C 588.37 380.82 588.27 382.28 588.16 383.75 C 583.64 384.27 579.09 384.10 574.56 383.90 C 574.36 377.80 574.47 371.70 574.45 365.60 C 578.50 364.53 582.74 364.53 586.89 364.88 C 588.65 365.91 588.23 368.04 588.48 369.76 C 593.17 369.62 597.86 369.81 602.55 369.60 C 602.40 367.94 602.41 366.26 602.11 364.62 C 600.95 361.73 597.45 361.18 594.77 360.60 C 586.85 360.17 578.91 360.41 570.98 360.40 C 567.43 360.30 563.92 361.14 560.76 362.74 M 612.36 360.28 C 612.42 369.74 612.42 379.21 612.34 388.68 C 617.22 388.75 622.10 388.85 626.98 388.66 C 626.80 384.71 626.75 380.75 626.83 376.81 C 631.37 376.84 635.95 376.46 640.45 377.30 C 640.32 381.06 640.33 384.84 640.32 388.61 C 644.97 388.88 649.63 388.78 654.29 388.70 C 654.44 379.24 654.33 369.78 654.32 360.32 C 649.69 360.32 645.05 360.37 640.42 360.24 C 640.33 364.26 640.34 368.29 640.33 372.31 C 635.95 372.34 631.56 372.25 627.18 372.39 C 626.61 368.41 626.82 364.38 626.75 360.38 C 621.95 360.33 617.15 360.38 612.36 360.28 M 664.73 360.26 C 664.52 369.73 664.76 379.20 664.73 388.67 C 669.61 388.84 674.51 388.82 679.40 388.62 C 679.25 379.18 679.28 369.73 679.35 360.29 C 674.47 360.32 669.60 360.39 664.73 360.26 M 689.54 360.28 C 689.49 369.73 689.60 379.18 689.46 388.64 C 694.19 388.89 698.93 388.76 703.68 388.66 C 703.72 385.59 703.72 382.52 703.61 379.46 C 711.58 378.99 719.74 380.36 727.52 378.11 C 729.01 377.64 730.49 376.88 731.40 375.55 C 731.69 372.10 731.66 368.62 731.45 365.18 C 731.63 361.85 727.41 361.61 725.09 360.70 C 713.26 359.99 701.38 360.55 689.54 360.28 M 373.79 364.10 C 373.30 369.05 373.72 374.05 373.57 379.02 C 373.72 381.43 372.92 384.30 374.89 386.19 C 380.21 389.85 386.95 388.42 393.00 388.77 C 400.46 388.41 408.49 389.99 415.32 386.16 C 415.52 383.92 415.59 381.67 415.62 379.43 C 411.02 379.36 406.43 379.36 401.83 379.43 C 401.71 380.89 401.63 382.36 401.55 383.83 C 397.17 384.13 392.79 384.06 388.41 384.05 C 388.23 377.85 388.32 371.66 388.38 365.46 C 392.73 364.43 397.30 364.41 401.64 365.52 C 401.62 366.88 401.62 368.24 401.61 369.61 C 406.28 369.80 410.95 369.69 415.62 369.62 C 415.46 367.40 415.86 365.03 415.02 362.92 C 408.10 358.85 399.64 360.88 392.01 360.38 C 385.95 360.82 378.30 358.92 373.79 364.10 Z" />
<path fill="#000000" opacity="1.00" d=" M 334.54 224.40 C 341.71 224.56 348.89 224.42 356.07 224.54 C 360.45 224.69 363.63 228.36 364.93 232.27 C 366.45 238.37 365.84 246.32 360.03 250.04 C 358.08 251.76 355.42 251.47 353.02 251.53 C 346.85 251.51 340.69 251.55 334.52 251.48 C 334.49 242.46 334.48 233.43 334.54 224.40 Z" />
<path fill="#000000" opacity="1.00" d=" M 234.04 231.50 C 235.43 233.39 235.74 235.75 236.22 237.98 C 238.25 248.29 240.19 258.62 242.21 268.94 C 243.11 274.45 244.60 279.86 244.94 285.45 C 238.01 285.78 231.06 285.56 224.12 285.58 C 225.74 275.21 227.97 264.94 230.05 254.66 C 231.13 246.89 233.46 239.34 234.04 231.50 Z" />
<path fill="#000000" opacity="1.00" d=" M 560.35 239.01 C 560.77 236.44 561.31 233.89 562.12 231.42 C 565.70 246.34 567.93 261.59 571.16 276.61 C 571.80 279.58 572.48 282.55 572.70 285.60 C 565.55 285.61 558.40 285.66 551.26 285.54 C 554.49 270.07 557.40 254.53 560.35 239.01 Z" />
<path fill="#000000" opacity="1.00" d=" M 440.40 365.32 C 445.07 364.49 449.99 364.24 454.60 365.55 C 454.51 371.71 454.61 377.86 454.51 384.02 C 449.80 384.30 445.05 384.51 440.36 383.89 C 440.47 377.70 440.38 371.51 440.40 365.32 Z" />
<path fill="#000000" opacity="1.00" d=" M 704.33 364.66 C 708.66 365.00 713.29 363.89 717.37 365.85 C 717.52 368.34 717.43 370.84 717.51 373.34 C 713.46 375.59 708.67 374.22 704.27 374.55 C 704.21 371.25 704.19 367.95 704.33 364.66 Z" />
<path fill="#000000" opacity="1.00" d=" M 164.77 367.49 C 165.16 367.49 165.94 367.50 166.33 367.50 C 168.10 371.48 170.54 375.13 172.08 379.22 C 167.77 378.97 163.18 380.13 159.08 378.50 C 161.44 375.09 163.23 371.33 164.77 367.49 Z" />
</g>
<g id="#fefefeff">
<path fill="#fefefe" opacity="1.00" d=" M 121.71 34.92 C 124.09 29.71 128.46 23.49 134.96 24.18 C 153.63 24.16 172.30 24.16 190.97 24.19 C 195.99 24.08 200.14 27.93 202.51 32.02 C 202.80 35.15 202.74 38.29 202.62 41.42 C 205.92 41.77 210.31 39.91 212.74 42.74 C 212.54 46.31 213.68 50.29 212.01 53.59 C 213.67 53.86 215.32 54.30 217.02 54.30 C 256.02 54.28 295.01 54.30 334.00 54.28 C 335.99 54.29 337.99 54.21 339.97 54.49 C 342.36 55.36 344.15 57.31 345.99 59.00 C 349.94 62.97 353.95 66.89 357.91 70.86 C 357.68 72.44 357.94 74.27 356.58 75.41 C 349.99 83.16 342.99 90.55 336.57 98.45 C 330.21 98.52 323.80 98.87 317.46 98.36 C 313.14 96.20 310.23 91.86 306.05 89.44 C 301.01 89.40 295.97 89.34 290.94 89.48 C 288.99 90.54 287.67 92.59 285.60 93.40 C 279.74 93.90 273.84 93.38 267.97 93.65 C 266.28 95.19 264.70 97.42 262.12 97.26 C 256.10 97.23 250.07 97.37 244.06 97.13 C 239.96 95.70 238.36 90.33 234.19 89.28 C 228.84 93.82 223.71 98.65 218.44 103.29 C 216.78 103.60 215.08 103.55 213.41 103.65 C 213.34 107.68 213.34 111.71 213.40 115.74 C 210.18 117.72 206.35 117.21 202.76 117.19 C 202.65 120.60 203.00 124.07 202.35 127.44 C 200.34 130.06 197.78 132.38 194.70 133.66 C 191.92 134.65 188.90 134.25 186.01 134.31 C 169.32 134.25 152.64 134.28 135.96 134.29 C 129.10 135.09 123.85 128.81 121.66 122.99 C 121.64 93.64 121.53 64.27 121.71 34.92 M 125.58 38.93 C 125.58 65.98 125.57 93.02 125.58 120.07 C 125.39 122.05 126.55 123.75 127.62 125.31 C 129.41 127.71 131.51 130.67 134.93 130.29 C 153.30 130.33 171.68 130.26 190.05 130.32 C 193.04 130.35 195.67 128.64 198.07 127.04 C 199.64 122.75 196.96 117.46 200.01 113.73 C 203.40 113.01 206.88 112.64 210.35 112.63 C 208.10 109.31 209.49 104.84 209.60 101.07 C 211.28 98.61 214.40 99.92 216.81 99.15 C 222.48 94.18 228.01 89.00 234.02 84.44 C 238.78 84.87 241.03 90.26 244.95 92.50 C 250.64 92.82 256.37 92.76 262.06 92.54 C 263.78 91.65 265.22 90.25 267.09 89.64 C 272.34 89.23 277.62 89.71 282.89 89.47 C 285.95 89.58 287.03 85.42 290.07 85.43 C 296.18 85.40 302.37 85.03 308.45 85.68 C 311.90 88.45 314.95 91.72 318.56 94.30 C 323.86 94.93 329.25 94.47 334.58 94.49 C 340.15 88.41 344.98 81.68 350.95 75.97 C 352.24 74.77 353.85 72.46 352.08 70.96 C 348.78 67.58 345.27 64.40 342.04 60.95 C 340.85 59.88 339.76 58.23 337.94 58.48 C 296.60 58.44 255.26 58.46 213.93 58.47 C 212.11 58.58 209.31 58.13 209.35 55.79 C 209.06 52.41 209.30 49.01 209.30 45.63 C 205.84 45.14 201.95 46.16 198.86 44.12 C 198.21 40.44 198.82 36.68 198.36 32.98 C 197.15 29.71 193.37 28.09 190.03 28.37 C 170.69 28.54 151.32 28.12 131.99 28.57 C 128.60 30.86 125.36 34.61 125.58 38.93 Z" />
<path fill="#fefefe" opacity="1.00" d=" M 369.97 69.17 C 372.65 65.89 376.61 63.00 381.05 63.20 C 400.04 63.22 419.04 63.20 438.03 63.20 C 442.73 62.96 446.16 66.71 448.77 70.12 C 450.82 73.00 450.29 76.68 450.35 80.01 C 450.27 107.36 450.40 134.72 450.28 162.07 C 449.01 166.38 445.75 169.85 442.07 172.28 C 439.43 172.83 436.72 172.76 434.04 172.77 C 416.00 172.73 397.96 172.81 379.92 172.74 C 375.59 172.91 372.39 169.34 369.69 166.42 C 368.93 162.86 369.70 159.12 368.57 155.60 C 365.61 155.66 362.65 155.62 359.70 155.57 C 357.87 151.52 358.84 146.99 358.68 142.71 C 315.25 142.42 271.81 142.90 228.39 142.46 C 223.25 136.95 217.67 131.86 212.52 126.37 C 210.76 124.88 211.37 122.33 213.01 121.02 C 219.54 114.55 226.05 108.05 232.61 101.61 C 233.75 100.19 235.81 99.84 237.48 100.42 C 240.28 102.96 242.71 105.90 245.54 108.42 C 250.94 109.08 256.44 108.70 261.89 108.71 C 264.57 108.97 265.53 105.31 268.17 105.41 C 273.45 105.33 278.75 105.47 284.04 105.35 C 286.38 104.34 287.76 101.93 289.96 100.67 C 294.99 100.45 300.03 100.68 305.06 100.57 C 312.59 100.10 315.38 110.45 322.90 110.20 C 326.57 109.72 330.23 110.23 333.91 110.20 C 335.57 109.15 336.73 107.53 337.96 106.04 C 341.14 101.85 344.66 97.91 347.53 93.50 C 351.24 93.37 354.95 93.41 358.67 93.28 C 358.66 88.96 358.32 84.60 359.05 80.31 C 362.26 79.64 365.55 79.70 368.82 79.85 C 368.83 76.30 368.59 72.50 369.97 69.17 M 373.47 70.26 C 373.12 74.62 374.50 79.97 370.97 83.34 C 368.42 83.85 365.81 83.60 363.25 83.56 C 362.46 87.80 362.72 92.12 362.56 96.41 C 358.30 97.77 353.81 97.35 349.42 97.47 C 345.77 103.05 341.19 107.93 337.25 113.29 C 330.74 114.16 324.02 113.77 317.47 113.43 C 313.50 110.77 310.63 106.38 306.07 104.69 C 301.41 104.51 296.72 104.43 292.08 104.79 C 289.56 106.08 287.70 108.50 284.96 109.35 C 279.41 109.60 273.85 109.35 268.30 109.52 C 267.39 110.54 266.50 111.57 265.61 112.59 C 259.09 112.73 252.57 112.79 246.06 112.66 C 241.07 112.88 240.21 105.30 235.34 105.29 C 231.80 107.28 229.40 110.75 226.45 113.48 C 223.14 117.05 219.33 120.16 216.32 123.99 C 220.64 128.97 225.41 133.57 230.06 138.23 C 233.01 138.68 236.02 138.48 239.00 138.52 C 278.98 138.50 318.96 138.50 358.93 138.52 C 360.37 138.39 362.05 138.87 362.51 140.41 C 362.92 144.10 362.66 147.83 362.77 151.54 C 365.51 151.78 368.40 151.25 371.06 152.03 C 374.88 155.00 372.74 160.45 373.59 164.55 C 375.36 167.32 378.69 169.04 381.99 168.79 C 400.31 168.73 418.64 168.79 436.96 168.76 C 441.85 169.23 445.43 164.29 446.32 160.01 C 446.45 132.32 446.35 104.62 446.37 76.93 C 446.74 72.81 443.23 69.45 440.00 67.58 C 420.68 67.00 401.32 67.53 381.98 67.32 C 378.79 66.93 375.98 68.51 373.47 70.26 Z" />
<path fill="#fefefe" opacity="1.00" d=" M 432.06 181.91 C 442.78 175.21 456.27 175.01 468.18 178.16 C 480.36 181.57 490.96 189.45 498.76 199.27 C 499.53 201.30 497.94 203.15 497.25 204.96 C 492.35 215.68 486.86 226.11 482.03 236.87 C 474.05 229.04 464.53 221.49 452.99 220.44 C 448.96 220.21 443.13 219.73 441.70 224.61 C 441.50 227.31 440.74 230.87 443.49 232.57 C 450.73 237.27 459.54 238.42 467.46 241.60 C 478.38 245.34 488.61 252.22 494.58 262.30 C 498.11 268.70 500.47 275.78 501.46 283.03 C 501.82 291.03 501.73 299.06 501.48 307.07 C 499.81 320.12 495.46 333.52 485.94 343.01 C 477.35 351.51 464.92 355.22 453.02 354.54 C 433.76 354.86 415.46 343.99 404.89 328.19 C 403.88 326.95 404.90 325.40 405.38 324.18 C 410.13 313.57 415.11 303.07 419.55 292.33 C 420.05 291.03 420.86 289.89 421.74 288.82 C 427.99 298.30 436.94 306.49 448.10 309.53 C 454.25 311.31 461.84 311.62 466.86 306.98 C 469.12 304.70 468.39 301.33 468.46 298.45 C 464.95 294.98 460.16 293.38 455.48 292.20 C 446.20 289.68 436.64 287.16 428.66 281.56 C 419.08 275.52 412.80 265.21 410.18 254.34 C 406.40 239.13 406.65 222.78 412.01 207.96 C 415.94 197.61 422.05 187.36 432.06 181.91 Z" />
<path fill="#fefefe" opacity="1.00" d=" M 121.78 178.62 C 137.03 178.54 152.28 178.72 167.53 178.54 C 167.58 236.28 167.45 294.02 167.55 351.77 C 156.61 351.59 145.66 351.52 134.72 351.79 C 134.44 317.19 134.96 282.56 134.42 247.98 C 129.63 269.99 124.10 291.83 119.27 313.83 C 116.55 326.51 112.78 338.94 110.39 351.69 C 105.45 351.62 100.51 351.67 95.57 351.66 C 87.59 317.11 78.92 282.71 71.51 248.04 C 71.16 252.35 71.11 256.68 71.29 261.00 C 71.15 291.25 71.40 321.50 71.17 351.74 C 60.21 351.55 49.25 351.52 38.30 351.79 C 38.27 294.06 38.14 236.32 38.36 178.59 C 53.35 178.62 68.33 178.68 83.32 178.54 C 85.06 183.29 85.79 188.32 87.06 193.20 C 92.36 216.12 97.63 239.06 103.05 261.95 C 105.94 246.52 110.22 231.38 113.52 216.03 C 116.18 203.54 119.44 191.16 121.78 178.62 Z" />
<path fill="#fefefe" opacity="1.00" d=" M 301.58 178.59 C 321.72 178.68 341.86 178.56 361.99 178.64 C 375.61 179.47 386.63 189.86 392.06 201.81 C 397.39 213.43 399.01 226.33 399.26 239.00 C 398.91 254.75 395.87 271.26 385.96 283.97 C 384.21 286.19 381.89 287.91 380.20 290.17 C 380.00 293.04 381.24 295.70 382.08 298.38 C 386.81 313.17 391.73 327.89 396.36 342.71 C 397.41 345.66 398.48 348.63 399.03 351.73 C 386.57 351.57 374.11 351.56 361.66 351.72 C 358.62 341.00 355.80 330.23 352.72 319.54 C 350.93 312.07 348.23 304.84 346.82 297.28 C 342.69 297.28 338.57 297.33 334.44 297.36 C 334.49 315.50 334.63 333.65 334.37 351.78 C 323.43 351.47 312.49 351.65 301.56 351.72 C 301.64 294.01 301.59 236.30 301.58 178.59 M 334.54 224.40 C 334.48 233.43 334.49 242.46 334.52 251.48 C 340.69 251.55 346.85 251.51 353.02 251.53 C 355.42 251.47 358.08 251.76 360.03 250.04 C 365.84 246.32 366.45 238.37 364.93 232.27 C 363.63 228.36 360.45 224.69 356.07 224.54 C 348.89 224.42 341.71 224.56 334.54 224.40 Z" />
<path fill="#fefefe" opacity="1.00" d=" M 541.34 178.58 C 555.29 178.66 569.25 178.58 583.21 178.63 C 584.44 187.95 587.47 196.91 589.46 206.08 C 599.27 249.64 609.54 293.08 619.71 336.56 C 620.85 341.60 622.57 346.55 622.81 351.75 C 610.45 351.56 598.08 351.47 585.73 351.80 C 584.60 345.04 582.76 338.39 582.20 331.55 C 568.75 331.37 555.28 331.32 541.83 331.61 C 541.76 338.41 539.50 344.92 538.78 351.65 C 526.26 351.63 513.74 351.60 501.22 351.69 C 507.91 321.01 515.49 290.53 522.39 259.91 C 528.92 232.85 534.90 205.66 541.34 178.58 M 560.35 239.01 C 557.40 254.53 554.49 270.07 551.26 285.54 C 558.40 285.66 565.55 285.61 572.70 285.60 C 572.48 282.55 571.80 279.58 571.16 276.61 C 567.93 261.59 565.70 246.34 562.12 231.42 C 561.31 233.89 560.77 236.44 560.35 239.01 Z" />
<path fill="#fefefe" opacity="1.00" d=" M 629.42 178.52 C 640.70 178.86 652.01 178.29 663.28 178.82 C 659.94 179.82 656.42 179.35 653.00 179.46 C 645.41 179.54 637.81 179.28 630.24 179.52 C 641.47 179.55 652.70 179.63 663.93 179.46 C 667.57 189.94 673.12 199.63 677.46 209.82 C 685.50 226.54 693.01 243.52 701.05 260.23 C 701.60 233.01 700.87 205.77 701.42 178.54 C 712.37 178.76 723.34 178.46 734.30 178.70 C 734.24 236.36 734.16 294.02 734.33 351.68 C 723.70 351.46 713.05 351.83 702.44 351.53 C 698.94 344.96 696.29 337.96 692.96 331.30 C 683.17 308.66 671.80 286.73 662.37 263.94 C 662.11 293.17 662.30 322.42 662.34 351.66 C 651.36 351.71 640.38 351.44 629.40 351.79 C 629.46 294.03 629.42 236.27 629.42 178.52 Z" />
<path fill="#fefefe" opacity="1.00" d=" M 213.57 179.49 C 213.93 179.28 214.65 178.85 215.01 178.64 C 228.33 178.64 241.66 178.53 254.98 178.70 C 256.04 180.19 256.22 182.08 256.62 183.82 C 261.43 204.63 266.20 225.45 271.29 246.19 C 275.44 265.20 280.01 284.12 284.36 303.08 C 287.78 319.37 292.46 335.40 295.54 351.76 C 282.95 351.47 270.36 351.73 257.78 351.61 C 257.55 344.76 255.05 338.26 254.41 331.47 C 241.21 331.38 228.01 331.49 214.81 331.46 C 213.93 338.24 212.20 344.88 211.28 351.64 C 198.88 351.69 186.47 351.50 174.07 351.74 C 174.23 347.93 175.23 344.25 176.10 340.56 C 188.62 286.88 201.28 233.22 213.57 179.49 M 234.04 231.50 C 233.46 239.34 231.13 246.89 230.05 254.66 C 227.97 264.94 225.74 275.21 224.12 285.58 C 231.06 285.56 238.01 285.78 244.94 285.45 C 244.60 279.86 243.11 274.45 242.21 268.94 C 240.19 258.62 238.25 248.29 236.22 237.98 C 235.74 235.75 235.43 233.39 234.04 231.50 Z" />
<path fill="#fefefe" opacity="1.00" d=" M 40.70 360.28 C 45.40 360.37 50.10 360.43 54.79 360.21 C 54.88 368.10 54.86 375.99 54.81 383.89 C 63.74 384.39 72.68 383.81 81.60 384.23 C 81.59 385.71 81.59 387.19 81.60 388.67 C 75.40 388.85 69.21 389.56 63.00 389.19 C 55.58 388.44 48.13 388.91 40.69 388.70 C 40.62 379.23 40.72 369.75 40.70 360.28 Z" />
<path fill="#fefefe" opacity="1.00" d=" M 91.15 360.34 C 95.91 360.38 100.67 360.27 105.42 360.41 C 105.30 368.28 105.30 376.16 105.38 384.04 C 114.16 384.19 122.94 383.99 131.72 384.18 C 131.73 385.69 131.74 387.21 131.75 388.74 C 118.15 388.86 104.54 388.70 90.94 388.77 C 90.92 379.30 90.58 369.80 91.15 360.34 Z" />
<path fill="#fefefe" opacity="1.00" d=" M 156.56 360.51 C 162.60 360.02 168.68 360.57 174.74 360.34 C 180.23 369.93 186.82 378.86 192.01 388.61 C 187.99 388.77 183.97 388.85 179.95 388.75 C 176.46 389.10 176.98 383.57 173.82 383.36 C 167.83 383.30 161.83 383.20 155.85 383.54 C 155.12 385.31 154.75 387.42 153.10 388.63 C 148.63 388.83 144.15 388.81 139.68 388.69 C 144.45 378.84 151.28 370.10 156.56 360.51 M 164.77 367.49 C 163.23 371.33 161.44 375.09 159.08 378.50 C 163.18 380.13 167.77 378.97 172.08 379.22 C 170.54 375.13 168.10 371.48 166.33 367.50 C 165.94 367.50 165.16 367.49 164.77 367.49 Z" />
<path fill="#fefefe" opacity="1.00" d=" M 186.85 360.45 C 191.18 360.32 195.51 360.27 199.84 360.39 C 201.19 360.17 201.67 361.74 202.32 362.60 C 205.46 368.45 208.91 374.14 211.98 380.04 C 216.08 373.68 219.70 367.02 223.47 360.47 C 228.03 360.18 232.61 360.39 237.18 360.41 C 235.97 364.07 233.36 367.01 231.32 370.23 C 227.40 376.37 223.51 382.52 219.57 388.65 C 214.76 388.92 209.95 388.69 205.14 388.69 C 203.62 386.82 202.28 384.81 201.04 382.75 C 196.40 375.26 191.14 368.15 186.85 360.45 Z" />
<path fill="#fefefe" opacity="1.00" d=" M 245.61 360.35 C 259.61 360.27 273.61 360.45 287.61 360.32 C 287.60 361.77 287.60 363.22 287.62 364.68 C 278.51 364.82 269.39 364.70 260.28 364.77 C 260.31 367.20 260.31 369.64 260.31 372.08 C 267.40 372.44 274.50 372.06 281.59 372.32 C 281.57 373.77 281.56 375.22 281.57 376.68 C 274.45 376.87 267.33 376.82 260.21 376.72 C 260.23 379.13 260.22 381.53 260.18 383.94 C 269.33 384.23 278.50 383.97 287.66 384.14 C 287.60 385.87 287.55 387.60 287.49 389.34 C 273.56 389.12 259.63 389.24 245.71 389.26 C 245.60 379.62 245.76 369.99 245.61 360.35 Z" />
<path fill="#fefefe" opacity="1.00" d=" M 295.35 363.67 C 297.89 361.83 300.86 360.46 304.06 360.49 C 311.72 360.30 319.39 360.34 327.05 360.45 C 330.61 360.44 334.43 361.25 337.13 363.71 C 337.41 365.65 337.32 367.63 337.44 369.59 C 332.66 369.77 327.87 369.75 323.09 369.72 C 322.93 368.27 322.78 366.81 322.65 365.36 C 318.28 364.52 313.73 364.37 309.42 365.61 C 309.41 367.50 309.39 369.39 309.38 371.28 C 318.71 372.36 328.06 373.18 337.36 374.60 C 337.10 378.23 337.14 381.89 337.29 385.53 C 334.71 387.03 331.97 388.60 328.90 388.60 C 321.59 388.87 314.27 388.83 306.96 388.72 C 303.44 388.55 299.51 388.73 296.63 386.34 C 294.34 384.83 295.66 381.72 295.30 379.46 C 299.99 379.48 304.69 379.42 309.38 379.52 C 309.42 380.92 309.46 382.33 309.50 383.74 C 313.87 383.83 318.58 384.88 322.74 383.26 C 322.84 381.45 322.82 379.64 322.81 377.84 C 313.59 377.01 304.36 376.11 295.25 374.52 C 295.25 370.90 295.31 367.29 295.35 363.67 Z" />
<path fill="#fefefe" opacity="1.00" d=" M 432.41 360.71 C 441.83 360.10 451.33 360.30 460.77 360.60 C 463.48 361.19 467.50 361.67 468.01 365.03 C 468.44 368.99 468.04 373.00 468.17 376.99 C 468.07 380.08 468.64 383.39 467.17 386.26 C 460.79 390.07 453.04 388.34 446.00 388.80 C 439.59 388.30 431.90 390.07 426.65 385.56 C 425.88 378.81 426.38 371.94 426.37 365.15 C 426.21 361.96 430.10 361.48 432.41 360.71 M 440.40 365.32 C 440.38 371.51 440.47 377.70 440.36 383.89 C 445.05 384.51 449.80 384.30 454.51 384.02 C 454.61 377.86 454.51 371.71 454.60 365.55 C 449.99 364.24 445.07 364.49 440.40 365.32 Z" />
<path fill="#fefefe" opacity="1.00" d=" M 478.51 360.31 C 483.16 360.52 487.86 360.03 492.48 360.57 C 498.11 365.65 503.01 371.59 509.07 376.19 C 509.39 370.88 509.18 365.56 509.24 360.25 C 513.92 360.41 518.60 360.39 523.28 360.30 C 523.45 369.77 523.33 379.23 523.34 388.70 C 518.89 388.79 514.44 388.89 510.00 388.63 C 508.14 387.69 506.85 385.97 505.37 384.57 C 501.51 380.52 497.07 377.10 493.23 373.04 C 492.73 379.27 492.99 385.53 492.54 391.77 C 492.46 391.26 492.30 390.26 492.22 389.75 C 487.79 388.65 483.16 389.44 478.65 389.27 C 478.37 379.62 478.66 369.96 478.51 360.31 Z" />
<path fill="#fefefe" opacity="1.00" d=" M 560.76 362.74 C 563.92 361.14 567.43 360.30 570.98 360.40 C 578.91 360.41 586.85 360.17 594.77 360.60 C 597.45 361.18 600.95 361.73 602.11 364.62 C 602.41 366.26 602.40 367.94 602.55 369.60 C 597.86 369.81 593.17 369.62 588.48 369.76 C 588.23 368.04 588.65 365.91 586.89 364.88 C 582.74 364.53 578.50 364.53 574.45 365.60 C 574.47 371.70 574.36 377.80 574.56 383.90 C 579.09 384.10 583.64 384.27 588.16 383.75 C 588.27 382.28 588.37 380.82 588.46 379.36 C 593.14 379.49 597.83 379.31 602.52 379.47 C 602.23 381.68 602.76 384.29 601.02 386.03 C 599.14 387.89 596.28 388.26 593.77 388.60 C 586.17 388.86 578.56 388.80 570.96 388.68 C 567.53 388.56 563.67 388.50 560.97 386.09 C 558.97 383.48 559.99 380.00 559.76 376.98 C 560.09 372.23 558.86 367.26 560.76 362.74 Z" />
<path fill="#fefefe" opacity="1.00" d=" M 612.36 360.28 C 617.15 360.38 621.95 360.33 626.75 360.38 C 626.82 364.38 626.61 368.41 627.18 372.39 C 631.56 372.25 635.95 372.34 640.33 372.31 C 640.34 368.29 640.33 364.26 640.42 360.24 C 645.05 360.37 649.69 360.32 654.32 360.32 C 654.33 369.78 654.44 379.24 654.29 388.70 C 649.63 388.78 644.97 388.88 640.32 388.61 C 640.33 384.84 640.32 381.06 640.45 377.30 C 635.95 376.46 631.37 376.84 626.83 376.81 C 626.75 380.75 626.80 384.71 626.98 388.66 C 622.10 388.85 617.22 388.75 612.34 388.68 C 612.42 379.21 612.42 369.74 612.36 360.28 Z" />
<path fill="#fefefe" opacity="1.00" d=" M 664.73 360.26 C 669.60 360.39 674.47 360.32 679.35 360.29 C 679.28 369.73 679.25 379.18 679.40 388.62 C 674.51 388.82 669.61 388.84 664.73 388.67 C 664.76 379.20 664.52 369.73 664.73 360.26 Z" />
<path fill="#fefefe" opacity="1.00" d=" M 689.54 360.28 C 701.38 360.55 713.26 359.99 725.09 360.70 C 727.41 361.61 731.63 361.85 731.45 365.18 C 731.66 368.62 731.69 372.10 731.40 375.55 C 730.49 376.88 729.01 377.64 727.52 378.11 C 719.74 380.36 711.58 378.99 703.61 379.46 C 703.72 382.52 703.72 385.59 703.68 388.66 C 698.93 388.76 694.19 388.89 689.46 388.64 C 689.60 379.18 689.49 369.73 689.54 360.28 M 704.33 364.66 C 704.19 367.95 704.21 371.25 704.27 374.55 C 708.67 374.22 713.46 375.59 717.51 373.34 C 717.43 370.84 717.52 368.34 717.37 365.85 C 713.29 363.89 708.66 365.00 704.33 364.66 Z" />
<path fill="#fefefe" opacity="1.00" d=" M 373.79 364.10 C 378.30 358.92 385.95 360.82 392.01 360.38 C 399.64 360.88 408.10 358.85 415.02 362.92 C 415.86 365.03 415.46 367.40 415.62 369.62 C 410.95 369.69 406.28 369.80 401.61 369.61 C 401.62 368.24 401.62 366.88 401.64 365.52 C 397.30 364.41 392.73 364.43 388.38 365.46 C 388.32 371.66 388.23 377.85 388.41 384.05 C 392.79 384.06 397.17 384.13 401.55 383.83 C 401.63 382.36 401.71 380.89 401.83 379.43 C 406.43 379.36 411.02 379.36 415.62 379.43 C 415.59 381.67 415.52 383.92 415.32 386.16 C 408.49 389.99 400.46 388.41 393.00 388.77 C 386.95 388.42 380.21 389.85 374.89 386.19 C 372.92 384.30 373.72 381.43 373.57 379.02 C 373.72 374.05 373.30 369.05 373.79 364.10 Z" />
</g>
<g id="#0101fcff">
<path fill="#0101fc" opacity="1.00" d=" M 125.58 38.93 C 125.36 34.61 128.60 30.86 131.99 28.57 C 151.32 28.12 170.69 28.54 190.03 28.37 C 193.37 28.09 197.15 29.71 198.36 32.98 C 198.82 36.68 198.21 40.44 198.86 44.12 C 201.95 46.16 205.84 45.14 209.30 45.63 C 209.30 49.01 209.06 52.41 209.35 55.79 C 209.31 58.13 212.11 58.58 213.93 58.47 C 255.26 58.46 296.60 58.44 337.94 58.48 C 339.76 58.23 340.85 59.88 342.04 60.95 C 345.27 64.40 348.78 67.58 352.08 70.96 C 353.85 72.46 352.24 74.77 350.95 75.97 C 344.98 81.68 340.15 88.41 334.58 94.49 C 329.25 94.47 323.86 94.93 318.56 94.30 C 314.95 91.72 311.90 88.45 308.45 85.68 C 302.37 85.03 296.18 85.40 290.07 85.43 C 287.03 85.42 285.95 89.58 282.89 89.47 C 277.62 89.71 272.34 89.23 267.09 89.64 C 265.22 90.25 263.78 91.65 262.06 92.54 C 256.37 92.76 250.64 92.82 244.95 92.50 C 241.03 90.26 238.78 84.87 234.02 84.44 C 228.01 89.00 222.48 94.18 216.81 99.15 C 214.40 99.92 211.28 98.61 209.60 101.07 C 209.49 104.84 208.10 109.31 210.35 112.63 C 206.88 112.64 203.40 113.01 200.01 113.73 C 196.96 117.46 199.64 122.75 198.07 127.04 C 195.67 128.64 193.04 130.35 190.05 130.32 C 171.68 130.26 153.30 130.33 134.93 130.29 C 131.51 130.67 129.41 127.71 127.62 125.31 C 126.55 123.75 125.39 122.05 125.58 120.07 C 125.57 93.02 125.58 65.98 125.58 38.93 Z" />
</g>
<g id="#fd0101ff">
<path fill="#fd0101" opacity="1.00" d=" M 373.47 70.26 C 375.98 68.51 378.79 66.93 381.98 67.32 C 401.32 67.53 420.68 67.00 440.00 67.58 C 443.23 69.45 446.74 72.81 446.37 76.93 C 446.35 104.62 446.45 132.32 446.32 160.01 C 445.43 164.29 441.85 169.23 436.96 168.76 C 418.64 168.79 400.31 168.73 381.99 168.79 C 378.69 169.04 375.36 167.32 373.59 164.55 C 372.74 160.45 374.88 155.00 371.06 152.03 C 368.40 151.25 365.51 151.78 362.77 151.54 C 362.66 147.83 362.92 144.10 362.51 140.41 C 362.05 138.87 360.37 138.39 358.93 138.52 C 318.96 138.50 278.98 138.50 239.00 138.52 C 236.02 138.48 233.01 138.68 230.06 138.23 C 225.41 133.57 220.64 128.97 216.32 123.99 C 219.33 120.16 223.14 117.05 226.45 113.48 C 229.40 110.75 231.80 107.28 235.34 105.29 C 240.21 105.30 241.07 112.88 246.06 112.66 C 252.57 112.79 259.09 112.73 265.61 112.59 C 266.50 111.57 267.39 110.54 268.30 109.52 C 273.85 109.35 279.41 109.60 284.96 109.35 C 287.70 108.50 289.56 106.08 292.08 104.79 C 296.72 104.43 301.41 104.51 306.07 104.69 C 310.63 106.38 313.50 110.77 317.47 113.43 C 324.02 113.77 330.74 114.16 337.25 113.29 C 341.19 107.93 345.77 103.05 349.42 97.47 C 353.81 97.35 358.30 97.77 362.56 96.41 C 362.72 92.12 362.46 87.80 363.25 83.56 C 365.81 83.60 368.42 83.85 370.97 83.34 C 374.50 79.97 373.12 74.62 373.47 70.26 Z" />
</g>
</svg>
